<?xml version="1.0" encoding="UTF-8" standalone="no"?>
<!-- Created with Inkscape (http://www.inkscape.org/) -->

<svg
   xmlns:dc="http://purl.org/dc/elements/1.1/"
   xmlns:cc="http://creativecommons.org/ns#"
   xmlns:rdf="http://www.w3.org/1999/02/22-rdf-syntax-ns#"
   xmlns:svg="http://www.w3.org/2000/svg"
   xmlns="http://www.w3.org/2000/svg"
   xmlns:sodipodi="http://sodipodi.sourceforge.net/DTD/sodipodi-0.dtd"
   xmlns:inkscape="http://www.inkscape.org/namespaces/inkscape"
   id="svg2"
   version="1.1"
   inkscape:version="0.91 r13725"
   xml:space="preserve"
   width="743.75"
   height="1052.5"
   viewBox="0 0 743.75 1052.5"
   sodipodi:docname="cos_thet_annotated.svg"><metadata
     id="metadata8"><rdf:RDF><cc:Work
         rdf:about=""><dc:format>image/svg+xml</dc:format><dc:type
           rdf:resource="http://purl.org/dc/dcmitype/StillImage" /><dc:title /></cc:Work></rdf:RDF></metadata><defs
     id="defs6"><marker
       inkscape:stockid="Arrow2Lend"
       orient="auto"
       refY="0.0"
       refX="0.0"
       id="marker6695"
       style="overflow:visible;"
       inkscape:isstock="true"><path
         id="path6697"
         style="fill-rule:evenodd;stroke-width:0.625;stroke-linejoin:round;stroke:#3a7c0e;stroke-opacity:1;fill:#3a7c0e;fill-opacity:1"
         d="M 8.7185878,4.0337352 L -2.2072895,0.016013256 L 8.7185884,-4.0017078 C 6.9730900,-1.6296469 6.9831476,1.6157441 8.7185878,4.0337352 z "
         transform="scale(1.1) rotate(180) translate(1,0)" /></marker><marker
       inkscape:isstock="true"
       style="overflow:visible;"
       id="marker6631"
       refX="0.0"
       refY="0.0"
       orient="auto"
       inkscape:stockid="Arrow2Lend"
       inkscape:collect="always"><path
         transform="scale(1.1) rotate(180) translate(1,0)"
         d="M 8.7185878,4.0337352 L -2.2072895,0.016013256 L 8.7185884,-4.0017078 C 6.9730900,-1.6296469 6.9831476,1.6157441 8.7185878,4.0337352 z "
         style="fill-rule:evenodd;stroke-width:0.625;stroke-linejoin:round;stroke:#3a7c0e;stroke-opacity:1;fill:#3a7c0e;fill-opacity:1"
         id="path6633" /></marker><marker
       inkscape:stockid="Arrow2Lend"
       orient="auto"
       refY="0.0"
       refX="0.0"
       id="Arrow2Lend"
       style="overflow:visible;"
       inkscape:isstock="true"
       inkscape:collect="always"><path
         id="path4256"
         style="fill-rule:evenodd;stroke-width:0.625;stroke-linejoin:round;stroke:#3a7c0e;stroke-opacity:1;fill:#3a7c0e;fill-opacity:1"
         d="M 8.7185878,4.0337352 L -2.2072895,0.016013256 L 8.7185884,-4.0017078 C 6.9730900,-1.6296469 6.9831476,1.6157441 8.7185878,4.0337352 z "
         transform="scale(1.1) rotate(180) translate(1,0)" /></marker><marker
       inkscape:isstock="true"
       style="overflow:visible;"
       id="marker5093"
       refX="0.0"
       refY="0.0"
       orient="auto"
       inkscape:stockid="Arrow2Lend"><path
         transform="scale(1.1) rotate(180) translate(1,0)"
         d="M 8.7185878,4.0337352 L -2.2072895,0.016013256 L 8.7185884,-4.0017078 C 6.9730900,-1.6296469 6.9831476,1.6157441 8.7185878,4.0337352 z "
         style="fill-rule:evenodd;stroke-width:0.625;stroke-linejoin:round;stroke:#dd2a2b;stroke-opacity:1;fill:#dd2a2b;fill-opacity:1"
         id="path5095" /></marker><marker
       inkscape:stockid="Arrow1Lend"
       orient="auto"
       refY="0.0"
       refX="0.0"
       id="Arrow1Lend"
       style="overflow:visible;"
       inkscape:isstock="true"><path
         id="path4238"
         d="M 0.0,0.0 L 5.0,-5.0 L -12.5,0.0 L 5.0,5.0 L 0.0,0.0 z "
         style="fill-rule:evenodd;stroke:#000000;stroke-width:1pt;stroke-opacity:1;fill:#000000;fill-opacity:1"
         transform="scale(0.8) rotate(180) translate(12.5,0)" /></marker><clipPath
       clipPathUnits="userSpaceOnUse"
       id="clipPath20"><path
         d="m 755,4487.5 1945,0 0,1945 -1945,0 0,-1945 z"
         id="path22"
         inkscape:connector-curvature="0" /></clipPath><clipPath
       clipPathUnits="userSpaceOnUse"
       id="clipPath150"><path
         d="m 3257.5,4487.5 1945,0 0,1945 -1945,0 0,-1945 z"
         id="path152"
         inkscape:connector-curvature="0" /></clipPath><clipPath
       clipPathUnits="userSpaceOnUse"
       id="clipPath294"><path
         d="m 755,1987.5 1945,0 0,1945 -1945,0 0,-1945 z"
         id="path296"
         inkscape:connector-curvature="0" /></clipPath><clipPath
       clipPathUnits="userSpaceOnUse"
       id="clipPath442"><path
         d="m 200,1430 5557.5,0 0,5560 -5557.5,0 0,-5560 z"
         id="path444"
         inkscape:connector-curvature="0" /></clipPath><clipPath
       clipPathUnits="userSpaceOnUse"
       id="clipPath632"><path
         d="m 3257.5,1987.5 1945,0 0,1945 -1945,0 0,-1945 z"
         id="path634"
         inkscape:connector-curvature="0" /></clipPath><marker
       inkscape:isstock="true"
       style="overflow:visible"
       id="marker5093-0"
       refX="0"
       refY="0"
       orient="auto"
       inkscape:stockid="Arrow2Lend"><path
         inkscape:connector-curvature="0"
         transform="matrix(-1.1,0,0,-1.1,-1.1,0)"
         d="M 8.7185878,4.0337352 -2.2072895,0.01601326 8.7185884,-4.0017078 c -1.7454984,2.3720609 -1.7354408,5.6174519 -6e-7,8.035443 z"
         style="fill:#dd2a2b;fill-opacity:1;fill-rule:evenodd;stroke:#dd2a2b;stroke-width:0.625;stroke-linejoin:round;stroke-opacity:1"
         id="path5095-4" /></marker><marker
       inkscape:isstock="true"
       style="overflow:visible"
       id="marker5093-0-5"
       refX="0"
       refY="0"
       orient="auto"
       inkscape:stockid="Arrow2Lend"><path
         inkscape:connector-curvature="0"
         transform="matrix(-1.1,0,0,-1.1,-1.1,0)"
         d="M 8.7185878,4.0337352 -2.2072895,0.01601326 8.7185884,-4.0017078 c -1.7454984,2.3720609 -1.7354408,5.6174519 -6e-7,8.035443 z"
         style="fill:#dd2a2b;fill-opacity:1;fill-rule:evenodd;stroke:#dd2a2b;stroke-width:0.625;stroke-linejoin:round;stroke-opacity:1"
         id="path5095-4-8" /></marker><marker
       inkscape:isstock="true"
       style="overflow:visible"
       id="marker5093-2"
       refX="0"
       refY="0"
       orient="auto"
       inkscape:stockid="Arrow2Lend"><path
         inkscape:connector-curvature="0"
         transform="matrix(-1.1,0,0,-1.1,-1.1,0)"
         d="M 8.7185878,4.0337352 -2.2072895,0.01601326 8.7185884,-4.0017078 c -1.7454984,2.3720609 -1.7354408,5.6174519 -6e-7,8.035443 z"
         style="fill:#dd2a2b;fill-opacity:1;fill-rule:evenodd;stroke:#dd2a2b;stroke-width:0.625;stroke-linejoin:round;stroke-opacity:1"
         id="path5095-7" /></marker></defs><sodipodi:namedview
     pagecolor="#ffffff"
     bordercolor="#666666"
     borderopacity="1"
     objecttolerance="10"
     gridtolerance="10"
     guidetolerance="10"
     inkscape:pageopacity="0"
     inkscape:pageshadow="2"
     inkscape:window-width="1920"
     inkscape:window-height="1028"
     id="namedview4"
     showgrid="false"
     inkscape:zoom="3.5876484"
     inkscape:cx="450.79289"
     inkscape:cy="754.40165"
     inkscape:window-x="-8"
     inkscape:window-y="-8"
     inkscape:window-maximized="1"
     inkscape:current-layer="g10" /><g
     id="g10"
     inkscape:groupmode="layer"
     inkscape:label="ink_ext_XXXXXX"
     transform="matrix(1.25,0,0,-1.25,0,1052.5)"><g
   id="g5636"
   transform="translate(56.638772,39.691737)"><g
   transform="translate(97.43756,-1.8255354)"
   id="g5550"><path
   inkscape:connector-curvature="0"
   id="path14"
   style="fill:none;stroke:#000000;stroke-width:0.25;stroke-linecap:butt;stroke-linejoin:miter;stroke-miterlimit:10;stroke-dasharray:none;stroke-opacity:1"
   d="m 75.5,448.75 194.5,0 0,194.5 -194.5,0 0,-194.5 z" /><path
   inkscape:connector-curvature="0"
   id="path24"
   style="fill:none;stroke:#000000;stroke-width:0.25;stroke-linecap:butt;stroke-linejoin:miter;stroke-miterlimit:10;stroke-dasharray:none;stroke-opacity:1"
   d="m 75.5,448.75 0,27.5 2,0 0,64.75 2,0 0,-61.25 2,0 0,-16.75 1.75,0 0,-0.25 2,0 0,0.5 2,0 0,1.25 2,0 0,0.25 2,0 0,0.25 1.75,0 0,-3 2,0 0,1.75 2,0 0,1 2,0 0,-1.75 1.75,0 0,0.5 2,0 0,-0.75 2,0 0,-0.75 2,0 0,-0.5 2,0 0,1 1.75,0 0,-1.25 2,0 0,-1 2,0 0,0.75 2,0 0,0.25 1.75,0 0,-1.75 2,0 0,1.25 2,0 0,-1 2,0 0,1.75 3.75,0 0,-1 2,0 0,-0.5 2,0 0,-1 2,0 0,0.25 2,0 0,0.75 1.75,0 0,-1 2,0 0,-0.75 2,0 0,1 2,0 0,0.75 1.75,0 0,-2 2,0 0,1 9.75,0 0,1 2,0 0,-1 7.75,0 0,-0.5 2,0 0,-0.25 2,0 0,-0.25 1.75,0 0,1.25 2,0 0,0.25 2,0 0,-1.5 2,0 0,1.25 1.75,0 0,-0.25 4,0 0,-1.25 2,0 0,1.5 2,0 0,0.25 1.75,0 0,0.25 2,0 0,0.75 2,0 0,-0.25 2,0 0,-1.25 1.75,0 0,0.5 2,0 0,0.75 2,0 0,1 4,0 0,-1.5 1.75,0 0,0.75 2,0 0,0.25 2,0 0,0.75 2,0 0,0.25 2,0 0,1 1.75,0 0,0.5 2,0 0,1.5 2,0 0,-2.75 2,0 0,1.75 1.75,0 0,1.5 2,0 0,-0.25 2,0 0,1.25 2,0 0,1.75 2,0 0,-0.25 1.75,0 0,1.75 2,0 0,2.25 2,0 0,1.5 2,0 0,2.5 1.75,0 0,-1.5 2,0 0,6.75 4,0 0,5 2,0 0,6.25 1.75,0 0,10.5 2,0 0,8.25 2,0 0,15 2,0 0,19 1.75,0 0,27.5 2,0 0,5.25 2,0 0,46 2,0 0,-32 2,0 0,-114.5 1.75,0 0,-28.5" /><path
   inkscape:connector-curvature="0"
   id="path26"
   style="fill:none;stroke:#000000;stroke-width:0.25;stroke-linecap:butt;stroke-linejoin:miter;stroke-miterlimit:10;stroke-dasharray:none;stroke-opacity:1"
   d="m 75.5,448.75 0,194.5" /><path
   inkscape:connector-curvature="0"
   id="path28"
   style="fill:none;stroke:#000000;stroke-width:0.25;stroke-linecap:butt;stroke-linejoin:miter;stroke-miterlimit:10;stroke-dasharray:none;stroke-opacity:1"
   d="m 84,448.75 -8.5,0" /><path
   inkscape:connector-curvature="0"
   id="path30"
   style="fill:none;stroke:#000000;stroke-width:0.25;stroke-linecap:butt;stroke-linejoin:miter;stroke-miterlimit:10;stroke-dasharray:none;stroke-opacity:1"
   d="m 79.75,458.75 -4.25,0" /><path
   inkscape:connector-curvature="0"
   id="path32"
   style="fill:none;stroke:#000000;stroke-width:0.25;stroke-linecap:butt;stroke-linejoin:miter;stroke-miterlimit:10;stroke-dasharray:none;stroke-opacity:1"
   d="m 84,468.75 -8.5,0" /><path
   inkscape:connector-curvature="0"
   id="path34"
   style="fill:none;stroke:#000000;stroke-width:0.25;stroke-linecap:butt;stroke-linejoin:miter;stroke-miterlimit:10;stroke-dasharray:none;stroke-opacity:1"
   d="m 79.75,478.75 -4.25,0" /><path
   inkscape:connector-curvature="0"
   id="path36"
   style="fill:none;stroke:#000000;stroke-width:0.25;stroke-linecap:butt;stroke-linejoin:miter;stroke-miterlimit:10;stroke-dasharray:none;stroke-opacity:1"
   d="m 84,488.75 -8.5,0" /><path
   inkscape:connector-curvature="0"
   id="path38"
   style="fill:none;stroke:#000000;stroke-width:0.25;stroke-linecap:butt;stroke-linejoin:miter;stroke-miterlimit:10;stroke-dasharray:none;stroke-opacity:1"
   d="m 79.75,498.75 -4.25,0" /><path
   inkscape:connector-curvature="0"
   id="path40"
   style="fill:none;stroke:#000000;stroke-width:0.25;stroke-linecap:butt;stroke-linejoin:miter;stroke-miterlimit:10;stroke-dasharray:none;stroke-opacity:1"
   d="m 84,508.75 -8.5,0" /><path
   inkscape:connector-curvature="0"
   id="path42"
   style="fill:none;stroke:#000000;stroke-width:0.25;stroke-linecap:butt;stroke-linejoin:miter;stroke-miterlimit:10;stroke-dasharray:none;stroke-opacity:1"
   d="m 79.75,519 -4.25,0" /><path
   inkscape:connector-curvature="0"
   id="path44"
   style="fill:none;stroke:#000000;stroke-width:0.25;stroke-linecap:butt;stroke-linejoin:miter;stroke-miterlimit:10;stroke-dasharray:none;stroke-opacity:1"
   d="m 84,529 -8.5,0" /><path
   inkscape:connector-curvature="0"
   id="path46"
   style="fill:none;stroke:#000000;stroke-width:0.25;stroke-linecap:butt;stroke-linejoin:miter;stroke-miterlimit:10;stroke-dasharray:none;stroke-opacity:1"
   d="m 79.75,539 -4.25,0" /><path
   inkscape:connector-curvature="0"
   id="path48"
   style="fill:none;stroke:#000000;stroke-width:0.25;stroke-linecap:butt;stroke-linejoin:miter;stroke-miterlimit:10;stroke-dasharray:none;stroke-opacity:1"
   d="m 84,549 -8.5,0" /><path
   inkscape:connector-curvature="0"
   id="path50"
   style="fill:none;stroke:#000000;stroke-width:0.25;stroke-linecap:butt;stroke-linejoin:miter;stroke-miterlimit:10;stroke-dasharray:none;stroke-opacity:1"
   d="m 79.75,559 -4.25,0" /><path
   inkscape:connector-curvature="0"
   id="path52"
   style="fill:none;stroke:#000000;stroke-width:0.25;stroke-linecap:butt;stroke-linejoin:miter;stroke-miterlimit:10;stroke-dasharray:none;stroke-opacity:1"
   d="m 84,569 -8.5,0" /><path
   inkscape:connector-curvature="0"
   id="path54"
   style="fill:none;stroke:#000000;stroke-width:0.25;stroke-linecap:butt;stroke-linejoin:miter;stroke-miterlimit:10;stroke-dasharray:none;stroke-opacity:1"
   d="m 79.75,579 -4.25,0" /><path
   inkscape:connector-curvature="0"
   id="path56"
   style="fill:none;stroke:#000000;stroke-width:0.25;stroke-linecap:butt;stroke-linejoin:miter;stroke-miterlimit:10;stroke-dasharray:none;stroke-opacity:1"
   d="m 84,589 -8.5,0" /><path
   inkscape:connector-curvature="0"
   id="path58"
   style="fill:none;stroke:#000000;stroke-width:0.25;stroke-linecap:butt;stroke-linejoin:miter;stroke-miterlimit:10;stroke-dasharray:none;stroke-opacity:1"
   d="m 79.75,599 -4.25,0" /><path
   inkscape:connector-curvature="0"
   id="path60"
   style="fill:none;stroke:#000000;stroke-width:0.25;stroke-linecap:butt;stroke-linejoin:miter;stroke-miterlimit:10;stroke-dasharray:none;stroke-opacity:1"
   d="m 84,609 -8.5,0" /><path
   inkscape:connector-curvature="0"
   id="path62"
   style="fill:none;stroke:#000000;stroke-width:0.25;stroke-linecap:butt;stroke-linejoin:miter;stroke-miterlimit:10;stroke-dasharray:none;stroke-opacity:1"
   d="m 79.75,619 -4.25,0" /><path
   inkscape:connector-curvature="0"
   id="path64"
   style="fill:none;stroke:#000000;stroke-width:0.25;stroke-linecap:butt;stroke-linejoin:miter;stroke-miterlimit:10;stroke-dasharray:none;stroke-opacity:1"
   d="m 84,629 -8.5,0" /><path
   inkscape:connector-curvature="0"
   id="path66"
   style="fill:none;stroke:#000000;stroke-width:0.25;stroke-linecap:butt;stroke-linejoin:miter;stroke-miterlimit:10;stroke-dasharray:none;stroke-opacity:1"
   d="m 84,629 -8.5,0" /><path
   inkscape:connector-curvature="0"
   id="path68"
   style="fill:none;stroke:#000000;stroke-width:0.25;stroke-linecap:butt;stroke-linejoin:miter;stroke-miterlimit:10;stroke-dasharray:none;stroke-opacity:1"
   d="m 79.75,639 -4.25,0" /><text
   transform="scale(1,-1)"
   style="font-variant:normal;font-weight:normal;font-size:11.75px;font-family:'Times New Roman';-inkscape-font-specification:Times-Roman;writing-mode:lr-tb;fill:#000000;fill-opacity:1;fill-rule:nonzero;stroke:none"
   id="text72"
   x="58.625"
   y="-445"><tspan
     x="58.625"
     y="-445"
     id="tspan74">0</tspan><tspan
     x="46.875 52.75 58.625"
     y="-465"
     sodipodi:role="line"
     id="tspan76">500</tspan><tspan
     x="41 46.875 52.75 58.625"
     y="-485"
     sodipodi:role="line"
     id="tspan78">1000</tspan><tspan
     x="41 46.875 52.75 58.625"
     y="-505"
     sodipodi:role="line"
     id="tspan80">1500</tspan><tspan
     x="41 46.875 52.75 58.625"
     y="-525"
     sodipodi:role="line"
     id="tspan82">2000</tspan><tspan
     x="41 46.875 52.75 58.625"
     y="-545"
     sodipodi:role="line"
     id="tspan84">2500</tspan><tspan
     x="41 46.875 52.75 58.625"
     y="-565"
     sodipodi:role="line"
     id="tspan86">3000</tspan><tspan
     x="41 46.875 52.75 58.625"
     y="-585"
     sodipodi:role="line"
     id="tspan88">3500</tspan><tspan
     x="41 46.875 52.75 58.625"
     y="-605"
     sodipodi:role="line"
     id="tspan90">4000</tspan><tspan
     x="41 46.875 52.75 58.625"
     y="-625.25"
     sodipodi:role="line"
     id="tspan92">4500</tspan></text>


<path
   inkscape:connector-curvature="0"
   id="path94"
   style="fill:none;stroke:#000000;stroke-width:0.25;stroke-linecap:butt;stroke-linejoin:miter;stroke-miterlimit:10;stroke-dasharray:none;stroke-opacity:1"
   d="m 75.5,448.75 194.5,0" /><path
   inkscape:connector-curvature="0"
   id="path96"
   style="fill:none;stroke:#000000;stroke-width:0.25;stroke-linecap:butt;stroke-linejoin:miter;stroke-miterlimit:10;stroke-dasharray:none;stroke-opacity:1"
   d="m 75.5,457 0,-8.25" /><path
   inkscape:connector-curvature="0"
   id="path98"
   style="fill:none;stroke:#000000;stroke-width:0.25;stroke-linecap:butt;stroke-linejoin:miter;stroke-miterlimit:10;stroke-dasharray:none;stroke-opacity:1"
   d="m 85.25,453 0,-4.25" /><path
   inkscape:connector-curvature="0"
   id="path100"
   style="fill:none;stroke:#000000;stroke-width:0.25;stroke-linecap:butt;stroke-linejoin:miter;stroke-miterlimit:10;stroke-dasharray:none;stroke-opacity:1"
   d="m 95,453 0,-4.25" /><path
   inkscape:connector-curvature="0"
   id="path102"
   style="fill:none;stroke:#000000;stroke-width:0.25;stroke-linecap:butt;stroke-linejoin:miter;stroke-miterlimit:10;stroke-dasharray:none;stroke-opacity:1"
   d="m 104.75,453 0,-4.25" /><path
   inkscape:connector-curvature="0"
   id="path104"
   style="fill:none;stroke:#000000;stroke-width:0.25;stroke-linecap:butt;stroke-linejoin:miter;stroke-miterlimit:10;stroke-dasharray:none;stroke-opacity:1"
   d="m 114.5,453 0,-4.25" /><path
   inkscape:connector-curvature="0"
   id="path106"
   style="fill:none;stroke:#000000;stroke-width:0.25;stroke-linecap:butt;stroke-linejoin:miter;stroke-miterlimit:10;stroke-dasharray:none;stroke-opacity:1"
   d="m 124.25,457 0,-8.25" /><path
   inkscape:connector-curvature="0"
   id="path108"
   style="fill:none;stroke:#000000;stroke-width:0.25;stroke-linecap:butt;stroke-linejoin:miter;stroke-miterlimit:10;stroke-dasharray:none;stroke-opacity:1"
   d="m 134,453 0,-4.25" /><path
   inkscape:connector-curvature="0"
   id="path110"
   style="fill:none;stroke:#000000;stroke-width:0.25;stroke-linecap:butt;stroke-linejoin:miter;stroke-miterlimit:10;stroke-dasharray:none;stroke-opacity:1"
   d="m 143.75,453 0,-4.25" /><path
   inkscape:connector-curvature="0"
   id="path112"
   style="fill:none;stroke:#000000;stroke-width:0.25;stroke-linecap:butt;stroke-linejoin:miter;stroke-miterlimit:10;stroke-dasharray:none;stroke-opacity:1"
   d="m 153.5,453 0,-4.25" /><path
   inkscape:connector-curvature="0"
   id="path114"
   style="fill:none;stroke:#000000;stroke-width:0.25;stroke-linecap:butt;stroke-linejoin:miter;stroke-miterlimit:10;stroke-dasharray:none;stroke-opacity:1"
   d="m 163,453 0,-4.25" /><path
   inkscape:connector-curvature="0"
   id="path116"
   style="fill:none;stroke:#000000;stroke-width:0.25;stroke-linecap:butt;stroke-linejoin:miter;stroke-miterlimit:10;stroke-dasharray:none;stroke-opacity:1"
   d="m 172.75,457 0,-8.25" /><path
   inkscape:connector-curvature="0"
   id="path118"
   style="fill:none;stroke:#000000;stroke-width:0.25;stroke-linecap:butt;stroke-linejoin:miter;stroke-miterlimit:10;stroke-dasharray:none;stroke-opacity:1"
   d="m 182.5,453 0,-4.25" /><path
   inkscape:connector-curvature="0"
   id="path120"
   style="fill:none;stroke:#000000;stroke-width:0.25;stroke-linecap:butt;stroke-linejoin:miter;stroke-miterlimit:10;stroke-dasharray:none;stroke-opacity:1"
   d="m 192.25,453 0,-4.25" /><path
   inkscape:connector-curvature="0"
   id="path122"
   style="fill:none;stroke:#000000;stroke-width:0.25;stroke-linecap:butt;stroke-linejoin:miter;stroke-miterlimit:10;stroke-dasharray:none;stroke-opacity:1"
   d="m 202,453 0,-4.25" /><path
   inkscape:connector-curvature="0"
   id="path124"
   style="fill:none;stroke:#000000;stroke-width:0.25;stroke-linecap:butt;stroke-linejoin:miter;stroke-miterlimit:10;stroke-dasharray:none;stroke-opacity:1"
   d="m 211.75,453 0,-4.25" /><path
   inkscape:connector-curvature="0"
   id="path126"
   style="fill:none;stroke:#000000;stroke-width:0.25;stroke-linecap:butt;stroke-linejoin:miter;stroke-miterlimit:10;stroke-dasharray:none;stroke-opacity:1"
   d="m 221.5,457 0,-8.25" /><path
   inkscape:connector-curvature="0"
   id="path128"
   style="fill:none;stroke:#000000;stroke-width:0.25;stroke-linecap:butt;stroke-linejoin:miter;stroke-miterlimit:10;stroke-dasharray:none;stroke-opacity:1"
   d="m 231.25,453 0,-4.25" /><path
   inkscape:connector-curvature="0"
   id="path130"
   style="fill:none;stroke:#000000;stroke-width:0.25;stroke-linecap:butt;stroke-linejoin:miter;stroke-miterlimit:10;stroke-dasharray:none;stroke-opacity:1"
   d="m 241,453 0,-4.25" /><path
   inkscape:connector-curvature="0"
   id="path132"
   style="fill:none;stroke:#000000;stroke-width:0.25;stroke-linecap:butt;stroke-linejoin:miter;stroke-miterlimit:10;stroke-dasharray:none;stroke-opacity:1"
   d="m 250.75,453 0,-4.25" /><path
   inkscape:connector-curvature="0"
   id="path134"
   style="fill:none;stroke:#000000;stroke-width:0.25;stroke-linecap:butt;stroke-linejoin:miter;stroke-miterlimit:10;stroke-dasharray:none;stroke-opacity:1"
   d="m 260.25,453 0,-4.25" /><path
   inkscape:connector-curvature="0"
   id="path136"
   style="fill:none;stroke:#000000;stroke-width:0.25;stroke-linecap:butt;stroke-linejoin:miter;stroke-miterlimit:10;stroke-dasharray:none;stroke-opacity:1"
   d="m 270,457 0,-8.25" /><text
   transform="scale(1,-1)"
   style="font-variant:normal;font-weight:normal;font-size:11.75px;font-family:'Times New Roman';-inkscape-font-specification:Times-Roman;writing-mode:lr-tb;fill:#000000;fill-opacity:1;fill-rule:nonzero;stroke:none"
   id="text140"
   x="70.6063"
   y="-435.5"><tspan
     x="70.6063 74.519051 114.9501 118.86285 124.73785 127.67535 169.81261 214.1564 220.0314 222.9689 267.06265"
     y="-435.5"
     sodipodi:role="line"
     id="tspan142">-1-0.500.51</tspan></text>


<text
   transform="scale(1,-1)"
   style="font-variant:normal;font-weight:normal;font-size:12.75px;font-family:'Times New Roman';-inkscape-font-specification:Times-Roman;writing-mode:lr-tb;fill:#000000;fill-opacity:1;fill-rule:nonzero;stroke:none"
   id="text448"
   x="151.50301"
   y="-418.25"><tspan
     x="151.50301 157.164 163.539 168.49875 174.87375 178.41824 184.79324 190.45425"
     y="-418.25"
     sodipodi:role="line"
     id="tspan450">cos_thet</tspan></text>


<path
   inkscape:connector-curvature="0"
   id="path452"
   style="fill:none;stroke:#000000;stroke-width:0.25;stroke-linecap:butt;stroke-linejoin:miter;stroke-miterlimit:10;stroke-dasharray:none;stroke-opacity:1"
   d="m 200.5,615.5 69.5,0 0,27.75 -69.5,0 0,-27.75 z" /><path
   inkscape:connector-curvature="0"
   id="path454"
   style="fill:none;stroke:#000000;stroke-width:0.25;stroke-linecap:butt;stroke-linejoin:miter;stroke-miterlimit:10;stroke-dasharray:none;stroke-opacity:1"
   d="m 200.5,615.5 69.5,0 0,27.75 -69.5,0 0,-27.75 z" /><text
   transform="scale(1,-1)"
   style="font-variant:normal;font-weight:normal;font-size:5.25px;font-family:'Times New Roman';-inkscape-font-specification:Times-Roman;writing-mode:lr-tb;fill:#000000;fill-opacity:1;fill-rule:nonzero;stroke:none"
   id="text458"
   x="204"
   y="-638"><tspan
     x="204 205.74825"
     y="-638"
     sodipodi:role="line"
     id="tspan460">ID</tspan><tspan
     x="204 207.20775 209.83275 211.29225 213.0405 214.5 216.83099"
     y="-631.25"
     sodipodi:role="line"
     id="tspan462">Entries</tspan><tspan
     x="204 208.66725 210.99825 213.32925"
     y="-624.25"
     sodipodi:role="line"
     id="tspan464">Mean</tspan><tspan
     x="204 207.50175 212.16901"
     y="-617.25"
     sodipodi:role="line"
     id="tspan466">RMS</tspan><tspan
     x="237.625 248.125 250.75 253.375 256 258.625 261.25 263.875"
     y="-638"
     sodipodi:role="line"
     id="tspan468"> 1000000</tspan><tspan
     x="240.25 253.375 256 258.625 261.25 263.875"
     y="-631.25"
     sodipodi:role="line"
     id="tspan470"> 56720</tspan><tspan
     x="250.75 252.0625 254.6875 256 258.625 261.25 263.875"
     y="-624.25"
     sodipodi:role="line"
     id="tspan472"> 0.3184</tspan><tspan
     x="250.75 252.0625 254.6875 256 258.625 261.25 263.875"
     y="-617.25"
     sodipodi:role="line"
     id="tspan474"> 0.6839</tspan></text>


<text
   transform="scale(1,-1)"
   style="font-variant:normal;font-weight:normal;font-size:11.75px;font-family:'Times New Roman';-inkscape-font-specification:Times-Roman;writing-mode:lr-tb;fill:#000000;fill-opacity:1;fill-rule:nonzero;stroke:none"
   id="text482"
   x="75.499702"
   y="-647.25"><tspan
     x="75.499702 80.716698 86.591698 91.162453 97.037453 100.30395 106.17895 111.39595"
     y="-647.25"
     sodipodi:role="line"
     id="tspan484">cos_thet</tspan></text>


<text
   transform="scale(1,-1)"
   style="font-variant:normal;font-weight:normal;font-size:11.75px;font-family:Symbol;-inkscape-font-specification:Symbol;writing-mode:lr-tb;fill:#000000;fill-opacity:1;fill-rule:nonzero;stroke:none"
   id="text486"
   x="114.6626"
   y="-647.25"><tspan
     x="114.6626"
     y="-647.25"
     id="tspan488">&lt;</tspan></text>


<text
   transform="scale(1,-1)"
   style="font-variant:normal;font-weight:normal;font-size:11.75px;font-family:'Times New Roman';-inkscape-font-specification:Times-Roman;writing-mode:lr-tb;fill:#000000;fill-opacity:1;fill-rule:nonzero;stroke:none"
   id="text490"
   x="121.11338"
   y="-647.25"><tspan
     x="121.11338"
     y="-647.25"
     id="tspan492">2</tspan></text>


</g><text
   transform="scale(1,-1)"
   sodipodi:linespacing="125%"
   id="text5632"
   y="-643.63269"
   x="301.79153"
   style="font-style:normal;font-variant:normal;font-weight:normal;font-stretch:normal;font-size:16px;line-height:125%;font-family:sans-serif;-inkscape-font-specification:'sans-serif, Normal';text-align:start;letter-spacing:0px;word-spacing:0px;writing-mode:lr-tb;text-anchor:start;fill:#000000;fill-opacity:1;stroke:none;stroke-width:1px;stroke-linecap:butt;stroke-linejoin:miter;stroke-opacity:1"
   xml:space="preserve"><tspan
     y="-643.63269"
     x="301.79153"
     id="tspan5634"
     sodipodi:role="line">electrons</tspan></text>


</g><text
   xml:space="preserve"
   style="font-style:normal;font-variant:normal;font-weight:normal;font-stretch:normal;font-size:16px;line-height:125%;font-family:sans-serif;-inkscape-font-specification:'sans-serif, Normal';text-align:start;letter-spacing:0px;word-spacing:0px;writing-mode:lr-tb;text-anchor:start;fill:#3a7c0e;fill-opacity:1;stroke:none;stroke-width:1px;stroke-linecap:butt;stroke-linejoin:miter;stroke-opacity:1;"
   x="302.81522"
   y="-631.04614"
   id="text4225"
   sodipodi:linespacing="125%"
   transform="scale(1,-1)"><tspan
     sodipodi:role="line"
     id="tspan4227"
     x="302.81522"
     y="-631.04614">t-channel</tspan></text>

<path
   style="fill:none;fill-rule:evenodd;stroke:#3a7c0e;stroke-width:1.20000005;stroke-linecap:butt;stroke-linejoin:miter;stroke-miterlimit:4;stroke-dasharray:none;stroke-opacity:1;marker-end:url(#Arrow2Lend)"
   d="m 336.50916,626.78423 c 6.46472,-57.23633 40.41072,-57.07865 71.9002,-58.65541"
   id="path4229"
   inkscape:connector-curvature="0"
   sodipodi:nodetypes="cc" /><text
   xml:space="preserve"
   style="font-style:normal;font-variant:normal;font-weight:normal;font-stretch:normal;font-size:16px;line-height:125%;font-family:sans-serif;-inkscape-font-specification:'sans-serif, Normal';text-align:start;letter-spacing:0px;word-spacing:0px;writing-mode:lr-tb;text-anchor:start;fill:#3a7c0e;fill-opacity:1;stroke:none;stroke-width:1px;stroke-linecap:butt;stroke-linejoin:miter;stroke-opacity:1;"
   x="267.42899"
   y="-552.90521"
   id="text5077"
   sodipodi:linespacing="125%"
   transform="scale(1,-1)"><tspan
     sodipodi:role="line"
     x="267.42899"
     y="-552.90521"
     id="tspan5081">s-channel</tspan></text>

<path
   style="fill:none;fill-rule:evenodd;stroke:#3a7c0e;stroke-width:1.20000005;stroke-linecap:butt;stroke-linejoin:miter;stroke-miterlimit:4;stroke-dasharray:none;stroke-opacity:1;marker-end:url(#marker6695)"
   d="M 292.77765,548.73388 263.75216,507.01861"
   id="path5085"
   inkscape:connector-curvature="0"
   sodipodi:nodetypes="cc" /><path
   style="fill:none;fill-rule:evenodd;stroke:#3a7c0e;stroke-width:1.20000005;stroke-linecap:butt;stroke-linejoin:miter;stroke-miterlimit:4;stroke-dasharray:none;stroke-opacity:1;marker-end:url(#marker6631)"
   d="m 311.50148,549.04427 24.26895,-44.71111"
   id="path5085-0"
   inkscape:connector-curvature="0"
   sodipodi:nodetypes="cc" /></g></svg>