<?xml version="1.0" encoding="UTF-8" standalone="no"?>
<!-- Created with Inkscape (http://www.inkscape.org/) -->

<svg
   xmlns:dc="http://purl.org/dc/elements/1.1/"
   xmlns:cc="http://creativecommons.org/ns#"
   xmlns:rdf="http://www.w3.org/1999/02/22-rdf-syntax-ns#"
   xmlns:svg="http://www.w3.org/2000/svg"
   xmlns="http://www.w3.org/2000/svg"
   xmlns:sodipodi="http://sodipodi.sourceforge.net/DTD/sodipodi-0.dtd"
   xmlns:inkscape="http://www.inkscape.org/namespaces/inkscape"
   id="svg2"
   version="1.1"
   inkscape:version="0.91 r13725"
   xml:space="preserve"
   width="743.75"
   height="1052.5"
   viewBox="0 0 743.75 1052.5"
   sodipodi:docname="mm_05_side.svg"><metadata
     id="metadata8"><rdf:RDF><cc:Work
         rdf:about=""><dc:format>image/svg+xml</dc:format><dc:type
           rdf:resource="http://purl.org/dc/dcmitype/StillImage" /><dc:title /></cc:Work></rdf:RDF></metadata><defs
     id="defs6"><marker
   inkscape:isstock="true"
   style="overflow:visible;"
   id="marker5473"
   refX="0.0"
   refY="0.0"
   orient="auto"
   inkscape:stockid="Arrow1Mend"><path
     transform="scale(0.4) rotate(180) translate(10,0)"
     style="fill-rule:evenodd;stroke:#008000;stroke-width:1pt;stroke-opacity:1;fill:#008000;fill-opacity:1"
     d="M 0.0,0.0 L 5.0,-5.0 L -12.5,0.0 L 5.0,5.0 L 0.0,0.0 z "
     id="path5475" /></marker><marker
   inkscape:isstock="true"
   style="overflow:visible;"
   id="marker5403"
   refX="0.0"
   refY="0.0"
   orient="auto"
   inkscape:stockid="Arrow1Mend"><path
     transform="scale(0.4) rotate(180) translate(10,0)"
     style="fill-rule:evenodd;stroke:#008000;stroke-width:1pt;stroke-opacity:1;fill:#008000;fill-opacity:1"
     d="M 0.0,0.0 L 5.0,-5.0 L -12.5,0.0 L 5.0,5.0 L 0.0,0.0 z "
     id="path5405" /></marker><marker
   inkscape:stockid="Arrow1Mend"
   orient="auto"
   refY="0.0"
   refX="0.0"
   id="Arrow1Mend"
   style="overflow:visible;"
   inkscape:isstock="true"
   inkscape:collect="always"><path
     id="path5092"
     d="M 0.0,0.0 L 5.0,-5.0 L -12.5,0.0 L 5.0,5.0 L 0.0,0.0 z "
     style="fill-rule:evenodd;stroke:#008000;stroke-width:1pt;stroke-opacity:1;fill:#008000;fill-opacity:1"
     transform="scale(0.4) rotate(180) translate(10,0)" /></marker><marker
   inkscape:stockid="Arrow1Lend"
   orient="auto"
   refY="0.0"
   refX="0.0"
   id="Arrow1Lend"
   style="overflow:visible;"
   inkscape:isstock="true"><path
     id="path5086"
     d="M 0.0,0.0 L 5.0,-5.0 L -12.5,0.0 L 5.0,5.0 L 0.0,0.0 z "
     style="fill-rule:evenodd;stroke:#ff0000;stroke-width:1pt;stroke-opacity:1;fill:#ff0000;fill-opacity:1"
     transform="scale(0.8) rotate(180) translate(12.5,0)" /></marker><clipPath
   clipPathUnits="userSpaceOnUse"
   id="clipPath18"><path
     d="m 180,230 5510,0 0,5510 -5510,0 0,-5510 z"
     id="path20"
     inkscape:connector-curvature="0" /></clipPath>












</defs><sodipodi:namedview
     pagecolor="#ffffff"
     bordercolor="#666666"
     borderopacity="1"
     objecttolerance="10"
     gridtolerance="10"
     guidetolerance="10"
     inkscape:pageopacity="0"
     inkscape:pageshadow="2"
     inkscape:window-width="1920"
     inkscape:window-height="1028"
     id="namedview4"
     showgrid="false"
     inkscape:zoom="0.89691211"
     inkscape:cx="44.332106"
     inkscape:cy="504.19165"
     inkscape:window-x="-8"
     inkscape:window-y="-8"
     inkscape:window-maximized="1"
     inkscape:current-layer="g10" /><g
     id="g10"
     inkscape:groupmode="layer"
     inkscape:label="ink_ext_XXXXXX"
     transform="matrix(1.25,0,0,-1.25,0,1052.5)"><path
       inkscape:connector-curvature="0"
       id="path130"
       style="fill:none;stroke:#000000;stroke-width:0.5;stroke-linecap:butt;stroke-linejoin:miter;stroke-miterlimit:10;stroke-dasharray:none;stroke-opacity:1"
       d="m 309.81,292.23 0,-0.48 0,13.52 0,-13.04" /><path
       inkscape:connector-curvature="0"
       id="path132"
       style="fill:none;stroke:#000000;stroke-width:0.5;stroke-linecap:butt;stroke-linejoin:miter;stroke-miterlimit:10;stroke-dasharray:none;stroke-opacity:1"
       d="m 277.14,292.23 0,-0.48 0,13.52 0,-13.04" /><path
       inkscape:connector-curvature="0"
       id="path134"
       style="fill:none;stroke:#000000;stroke-width:0.5;stroke-linecap:butt;stroke-linejoin:miter;stroke-miterlimit:10;stroke-dasharray:none;stroke-opacity:1"
       d="m 309.81,296.26 0,-0.17 0,4.83 0,-4.66" /><path
       inkscape:connector-curvature="0"
       id="path136"
       style="fill:none;stroke:#000000;stroke-width:0.5;stroke-linecap:butt;stroke-linejoin:miter;stroke-miterlimit:10;stroke-dasharray:none;stroke-opacity:1"
       d="m 277.14,296.26 0,-0.17 0,4.83 0,-4.66" /><path
       inkscape:connector-curvature="0"
       id="path138"
       style="fill:none;stroke:#000000;stroke-width:0.5;stroke-linecap:butt;stroke-linejoin:miter;stroke-miterlimit:10;stroke-dasharray:none;stroke-opacity:1"
       d="m 353.5,243.11 0,8.12 0,-8.12" /><path
       inkscape:connector-curvature="0"
       id="path140"
       style="fill:none;stroke:#000000;stroke-width:0.5;stroke-linecap:butt;stroke-linejoin:miter;stroke-miterlimit:10;stroke-dasharray:none;stroke-opacity:1"
       d="m 233.5,243.11 0,8.12 0,-8.12" /><path
       inkscape:connector-curvature="0"
       id="path142"
       style="fill:none;stroke:#000000;stroke-width:0.5;stroke-linecap:butt;stroke-linejoin:miter;stroke-miterlimit:10;stroke-dasharray:none;stroke-opacity:1"
       d="m 353.5,239.5 0,4.7 0,-4.7" /><path
       inkscape:connector-curvature="0"
       id="path144"
       style="fill:none;stroke:#000000;stroke-width:0.5;stroke-linecap:butt;stroke-linejoin:miter;stroke-miterlimit:10;stroke-dasharray:none;stroke-opacity:1"
       d="m 233.5,239.5 0,4.7 0,-4.7" /><path
       inkscape:connector-curvature="0"
       id="path146"
       style="fill:none;stroke:#000000;stroke-width:0.5;stroke-linecap:butt;stroke-linejoin:miter;stroke-miterlimit:10;stroke-dasharray:none;stroke-opacity:1"
       d="m 353.5,239.92 0,1.46 0,-1.97 0,0.51" /><path
       inkscape:connector-curvature="0"
       id="path148"
       style="fill:none;stroke:#000000;stroke-width:0.5;stroke-linecap:butt;stroke-linejoin:miter;stroke-miterlimit:10;stroke-dasharray:none;stroke-opacity:1"
       d="m 233.5,239.92 0,1.46 0,-1.97 0,0.51" /><path
       inkscape:connector-curvature="0"
       id="path150"
       style="fill:none;stroke:#000000;stroke-width:0.5;stroke-linecap:butt;stroke-linejoin:miter;stroke-miterlimit:10;stroke-dasharray:none;stroke-opacity:1"
       d="m 353.5,244.33 0,1.4 0,-5.65 0,4.25" /><path
       inkscape:connector-curvature="0"
       id="path152"
       style="fill:none;stroke:#000000;stroke-width:0.5;stroke-linecap:butt;stroke-linejoin:miter;stroke-miterlimit:10;stroke-dasharray:none;stroke-opacity:1"
       d="m 233.5,244.33 0,1.4 0,-5.65 0,4.25" /><path
       inkscape:connector-curvature="0"
       id="path154"
       style="fill:none;stroke:#000000;stroke-width:0.5;stroke-linecap:butt;stroke-linejoin:miter;stroke-miterlimit:10;stroke-dasharray:none;stroke-opacity:1"
       d="m 353.5,252.43 0,1.24 0,-8.95 0,7.71" /><path
       inkscape:connector-curvature="0"
       id="path156"
       style="fill:none;stroke:#000000;stroke-width:0.5;stroke-linecap:butt;stroke-linejoin:miter;stroke-miterlimit:10;stroke-dasharray:none;stroke-opacity:1"
       d="m 233.5,252.43 0,1.24 0,-8.95 0,7.71" /><path
       inkscape:connector-curvature="0"
       id="path158"
       style="fill:none;stroke:#000000;stroke-width:0.5;stroke-linecap:butt;stroke-linejoin:miter;stroke-miterlimit:10;stroke-dasharray:none;stroke-opacity:1"
       d="m 353.5,263.67 0,0.99 0,-11.63 0,10.64" /><path
       inkscape:connector-curvature="0"
       id="path160"
       style="fill:none;stroke:#000000;stroke-width:0.5;stroke-linecap:butt;stroke-linejoin:miter;stroke-miterlimit:10;stroke-dasharray:none;stroke-opacity:1"
       d="m 233.5,263.67 0,0.99 0,-11.63 0,10.64" /><path
       inkscape:connector-curvature="0"
       id="path162"
       style="fill:none;stroke:#000000;stroke-width:0.5;stroke-linecap:butt;stroke-linejoin:miter;stroke-miterlimit:10;stroke-dasharray:none;stroke-opacity:1"
       d="m 353.5,277.28 0,0.69 0,-13.53 0,12.84" /><path
       inkscape:connector-curvature="0"
       id="path164"
       style="fill:none;stroke:#000000;stroke-width:0.5;stroke-linecap:butt;stroke-linejoin:miter;stroke-miterlimit:10;stroke-dasharray:none;stroke-opacity:1"
       d="m 233.5,277.28 0,0.69 0,-13.53 0,12.84" /><path
       inkscape:connector-curvature="0"
       id="path166"
       style="fill:none;stroke:#000000;stroke-width:0.5;stroke-linecap:butt;stroke-linejoin:miter;stroke-miterlimit:10;stroke-dasharray:none;stroke-opacity:1"
       d="m 353.5,292.34 0,0.33 0,-14.5 0,14.17" /><path
       inkscape:connector-curvature="0"
       id="path168"
       style="fill:none;stroke:#000000;stroke-width:0.5;stroke-linecap:butt;stroke-linejoin:miter;stroke-miterlimit:10;stroke-dasharray:none;stroke-opacity:1"
       d="m 233.5,292.34 0,0.33 0,-14.5 0,14.17" /><path
       inkscape:connector-curvature="0"
       id="path170"
       style="fill:none;stroke:#000000;stroke-width:0.5;stroke-linecap:butt;stroke-linejoin:miter;stroke-miterlimit:10;stroke-dasharray:none;stroke-opacity:1"
       d="m 353.5,307.82 0,-14.58 0,14.58" /><path
       inkscape:connector-curvature="0"
       id="path172"
       style="fill:none;stroke:#000000;stroke-width:0.5;stroke-linecap:butt;stroke-linejoin:miter;stroke-miterlimit:10;stroke-dasharray:none;stroke-opacity:1"
       d="m 233.5,307.82 0,-14.58 0,14.58" /><path
       inkscape:connector-curvature="0"
       id="path174"
       style="fill:none;stroke:#000000;stroke-width:0.5;stroke-linecap:butt;stroke-linejoin:miter;stroke-miterlimit:10;stroke-dasharray:none;stroke-opacity:1"
       d="m 353.5,322.66 0,-14.33 0,14.33" /><path
       inkscape:connector-curvature="0"
       id="path176"
       style="fill:none;stroke:#000000;stroke-width:0.5;stroke-linecap:butt;stroke-linejoin:miter;stroke-miterlimit:10;stroke-dasharray:none;stroke-opacity:1"
       d="m 233.5,322.66 0,-14.33 0,14.33" /><path
       inkscape:connector-curvature="0"
       id="path178"
       style="fill:none;stroke:#000000;stroke-width:0.5;stroke-linecap:butt;stroke-linejoin:miter;stroke-miterlimit:10;stroke-dasharray:none;stroke-opacity:1"
       d="m 353.5,335.86 0,-13.11 0,13.11" /><path
       inkscape:connector-curvature="0"
       id="path180"
       style="fill:none;stroke:#000000;stroke-width:0.5;stroke-linecap:butt;stroke-linejoin:miter;stroke-miterlimit:10;stroke-dasharray:none;stroke-opacity:1"
       d="m 233.5,335.86 0,-13.11 0,13.11" /><path
       inkscape:connector-curvature="0"
       id="path182"
       style="fill:none;stroke:#000000;stroke-width:0.5;stroke-linecap:butt;stroke-linejoin:miter;stroke-miterlimit:10;stroke-dasharray:none;stroke-opacity:1"
       d="m 353.5,346.51 0,-10.98 0,10.98" /><path
       inkscape:connector-curvature="0"
       id="path184"
       style="fill:none;stroke:#000000;stroke-width:0.5;stroke-linecap:butt;stroke-linejoin:miter;stroke-miterlimit:10;stroke-dasharray:none;stroke-opacity:1"
       d="m 233.5,346.51 0,-10.98 0,10.98" /><path
       inkscape:connector-curvature="0"
       id="path186"
       style="fill:none;stroke:#000000;stroke-width:0.5;stroke-linecap:butt;stroke-linejoin:miter;stroke-miterlimit:10;stroke-dasharray:none;stroke-opacity:1"
       d="m 353.5,353.89 0,-8.12 0,8.12" /><path
       inkscape:connector-curvature="0"
       id="path188"
       style="fill:none;stroke:#000000;stroke-width:0.5;stroke-linecap:butt;stroke-linejoin:miter;stroke-miterlimit:10;stroke-dasharray:none;stroke-opacity:1"
       d="m 233.5,353.89 0,-8.12 0,8.12" /><path
       inkscape:connector-curvature="0"
       id="path190"
       style="fill:none;stroke:#000000;stroke-width:0.5;stroke-linecap:butt;stroke-linejoin:miter;stroke-miterlimit:10;stroke-dasharray:none;stroke-opacity:1"
       d="m 353.5,357.5 0,-4.7 0,4.7" /><path
       inkscape:connector-curvature="0"
       id="path192"
       style="fill:none;stroke:#000000;stroke-width:0.5;stroke-linecap:butt;stroke-linejoin:miter;stroke-miterlimit:10;stroke-dasharray:none;stroke-opacity:1"
       d="m 233.5,357.5 0,-4.7 0,4.7" /><path
       inkscape:connector-curvature="0"
       id="path194"
       style="fill:none;stroke:#000000;stroke-width:0.5;stroke-linecap:butt;stroke-linejoin:miter;stroke-miterlimit:10;stroke-dasharray:none;stroke-opacity:1"
       d="m 353.5,357.08 0,-1.46 0,1.97 0,-0.51" /><path
       inkscape:connector-curvature="0"
       id="path196"
       style="fill:none;stroke:#000000;stroke-width:0.5;stroke-linecap:butt;stroke-linejoin:miter;stroke-miterlimit:10;stroke-dasharray:none;stroke-opacity:1"
       d="m 233.5,357.08 0,-1.46 0,1.97 0,-0.51" /><path
       inkscape:connector-curvature="0"
       id="path198"
       style="fill:none;stroke:#000000;stroke-width:0.5;stroke-linecap:butt;stroke-linejoin:miter;stroke-miterlimit:10;stroke-dasharray:none;stroke-opacity:1"
       d="m 353.5,352.67 0,-1.4 0,5.65 0,-4.25" /><path
       inkscape:connector-curvature="0"
       id="path200"
       style="fill:none;stroke:#000000;stroke-width:0.5;stroke-linecap:butt;stroke-linejoin:miter;stroke-miterlimit:10;stroke-dasharray:none;stroke-opacity:1"
       d="m 233.5,352.67 0,-1.4 0,5.65 0,-4.25" /><path
       inkscape:connector-curvature="0"
       id="path202"
       style="fill:none;stroke:#000000;stroke-width:0.5;stroke-linecap:butt;stroke-linejoin:miter;stroke-miterlimit:10;stroke-dasharray:none;stroke-opacity:1"
       d="m 353.5,344.57 0,-1.24 0,8.95 0,-7.71" /><path
       inkscape:connector-curvature="0"
       id="path204"
       style="fill:none;stroke:#000000;stroke-width:0.5;stroke-linecap:butt;stroke-linejoin:miter;stroke-miterlimit:10;stroke-dasharray:none;stroke-opacity:1"
       d="m 233.5,344.57 0,-1.24 0,8.95 0,-7.71" /><path
       inkscape:connector-curvature="0"
       id="path206"
       style="fill:none;stroke:#000000;stroke-width:0.5;stroke-linecap:butt;stroke-linejoin:miter;stroke-miterlimit:10;stroke-dasharray:none;stroke-opacity:1"
       d="m 353.5,333.33 0,-0.99 0,11.63 0,-10.64" /><path
       inkscape:connector-curvature="0"
       id="path208"
       style="fill:none;stroke:#000000;stroke-width:0.5;stroke-linecap:butt;stroke-linejoin:miter;stroke-miterlimit:10;stroke-dasharray:none;stroke-opacity:1"
       d="m 233.5,333.33 0,-0.99 0,11.63 0,-10.64" /><path
       inkscape:connector-curvature="0"
       id="path210"
       style="fill:none;stroke:#000000;stroke-width:0.5;stroke-linecap:butt;stroke-linejoin:miter;stroke-miterlimit:10;stroke-dasharray:none;stroke-opacity:1"
       d="m 353.5,319.72 0,-0.69 0,13.53 0,-12.84" /><path
       inkscape:connector-curvature="0"
       id="path212"
       style="fill:none;stroke:#000000;stroke-width:0.5;stroke-linecap:butt;stroke-linejoin:miter;stroke-miterlimit:10;stroke-dasharray:none;stroke-opacity:1"
       d="m 233.5,319.72 0,-0.69 0,13.53 0,-12.84" /><path
       inkscape:connector-curvature="0"
       id="path214"
       style="fill:none;stroke:#000000;stroke-width:0.5;stroke-linecap:butt;stroke-linejoin:miter;stroke-miterlimit:10;stroke-dasharray:none;stroke-opacity:1"
       d="m 353.5,304.66 0,-0.33 0,14.5 0,-14.17" /><path
       inkscape:connector-curvature="0"
       id="path216"
       style="fill:none;stroke:#000000;stroke-width:0.5;stroke-linecap:butt;stroke-linejoin:miter;stroke-miterlimit:10;stroke-dasharray:none;stroke-opacity:1"
       d="m 233.5,304.66 0,-0.33 0,14.5 0,-14.17" /><path
       inkscape:connector-curvature="0"
       id="path218"
       style="fill:none;stroke:#000000;stroke-width:0.5;stroke-linecap:butt;stroke-linejoin:miter;stroke-miterlimit:10;stroke-dasharray:none;stroke-opacity:1"
       d="m 353.5,289.18 0,14.58 0,-14.58" /><path
       inkscape:connector-curvature="0"
       id="path220"
       style="fill:none;stroke:#000000;stroke-width:0.5;stroke-linecap:butt;stroke-linejoin:miter;stroke-miterlimit:10;stroke-dasharray:none;stroke-opacity:1"
       d="m 233.5,289.18 0,14.58 0,-14.58" /><path
       inkscape:connector-curvature="0"
       id="path222"
       style="fill:none;stroke:#000000;stroke-width:0.5;stroke-linecap:butt;stroke-linejoin:miter;stroke-miterlimit:10;stroke-dasharray:none;stroke-opacity:1"
       d="m 353.5,274.34 0,14.33 0,-14.33" /><path
       inkscape:connector-curvature="0"
       id="path224"
       style="fill:none;stroke:#000000;stroke-width:0.5;stroke-linecap:butt;stroke-linejoin:miter;stroke-miterlimit:10;stroke-dasharray:none;stroke-opacity:1"
       d="m 233.5,274.34 0,14.33 0,-14.33" /><path
       inkscape:connector-curvature="0"
       id="path226"
       style="fill:none;stroke:#000000;stroke-width:0.5;stroke-linecap:butt;stroke-linejoin:miter;stroke-miterlimit:10;stroke-dasharray:none;stroke-opacity:1"
       d="m 353.5,261.14 0,13.11 0,-13.11" /><path
       inkscape:connector-curvature="0"
       id="path228"
       style="fill:none;stroke:#000000;stroke-width:0.5;stroke-linecap:butt;stroke-linejoin:miter;stroke-miterlimit:10;stroke-dasharray:none;stroke-opacity:1"
       d="m 233.5,261.14 0,13.11 0,-13.11" /><path
       inkscape:connector-curvature="0"
       id="path230"
       style="fill:none;stroke:#000000;stroke-width:0.5;stroke-linecap:butt;stroke-linejoin:miter;stroke-miterlimit:10;stroke-dasharray:none;stroke-opacity:1"
       d="m 353.5,250.49 0,10.98 0,-10.98" /><path
       inkscape:connector-curvature="0"
       id="path232"
       style="fill:none;stroke:#000000;stroke-width:0.5;stroke-linecap:butt;stroke-linejoin:miter;stroke-miterlimit:10;stroke-dasharray:none;stroke-opacity:1"
       d="m 233.5,250.49 0,10.98 0,-10.98" /><path
       inkscape:connector-curvature="0"
       id="path234"
       style="fill:none;stroke:#000000;stroke-width:0.5;stroke-linecap:butt;stroke-linejoin:miter;stroke-miterlimit:10;stroke-dasharray:2, 2;stroke-dashoffset:0;stroke-opacity:1"
       d="m 174.12,228.96 0,-5.41 0,149.9 0,-144.49" /><path
       inkscape:connector-curvature="0"
       id="path236"
       style="fill:none;stroke:#000000;stroke-width:0.5;stroke-linecap:butt;stroke-linejoin:miter;stroke-miterlimit:10;stroke-dasharray:2, 2;stroke-dashoffset:0;stroke-opacity:1"
       d="m 412.88,228.96 0,-5.41 0,149.9 0,-144.49" /><path
       inkscape:connector-curvature="0"
       id="path238"
       style="fill:none;stroke:#000000;stroke-width:0.5;stroke-linecap:butt;stroke-linejoin:miter;stroke-miterlimit:10;stroke-dasharray:2, 2;stroke-dashoffset:0;stroke-opacity:1"
       d="m 174.12,205.69 0,-7.23 0,200.08 0,-192.85" /><path
       inkscape:connector-curvature="0"
       id="path240"
       style="fill:none;stroke:#000000;stroke-width:0.5;stroke-linecap:butt;stroke-linejoin:miter;stroke-miterlimit:10;stroke-dasharray:2, 2;stroke-dashoffset:0;stroke-opacity:1"
       d="m 412.88,205.69 0,-7.23 0,200.08 0,-192.85" /><path
       inkscape:connector-curvature="0"
       id="path242"
       style="fill:none;stroke:#000000;stroke-width:0.5;stroke-linecap:butt;stroke-linejoin:miter;stroke-miterlimit:10;stroke-dasharray:2, 2;stroke-dashoffset:0;stroke-opacity:1"
       d="m 174.12,232.28 238.76,0" /><path
       inkscape:connector-curvature="0"
       id="path244"
       style="fill:none;stroke:#000000;stroke-width:0.5;stroke-linecap:butt;stroke-linejoin:miter;stroke-miterlimit:10;stroke-dasharray:2, 2;stroke-dashoffset:0;stroke-opacity:1"
       d="m 174.12,263.29 238.76,0" /><path
       inkscape:connector-curvature="0"
       id="path246"
       style="fill:none;stroke:#000000;stroke-width:0.5;stroke-linecap:butt;stroke-linejoin:miter;stroke-miterlimit:10;stroke-dasharray:2, 2;stroke-dashoffset:0;stroke-opacity:1"
       d="m 174.12,364.72 238.76,0" /><path
       inkscape:connector-curvature="0"
       id="path248"
       style="fill:none;stroke:#000000;stroke-width:0.5;stroke-linecap:butt;stroke-linejoin:miter;stroke-miterlimit:10;stroke-dasharray:2, 2;stroke-dashoffset:0;stroke-opacity:1"
       d="m 174.12,333.71 238.76,0" /><path
       inkscape:connector-curvature="0"
       id="path250"
       style="fill:none;stroke:#000000;stroke-width:0.5;stroke-linecap:butt;stroke-linejoin:miter;stroke-miterlimit:10;stroke-dasharray:2, 2;stroke-dashoffset:0;stroke-opacity:1"
       d="m 174.12,210.12 238.76,0" /><path
       inkscape:connector-curvature="0"
       id="path252"
       style="fill:none;stroke:#000000;stroke-width:0.5;stroke-linecap:butt;stroke-linejoin:miter;stroke-miterlimit:10;stroke-dasharray:2, 2;stroke-dashoffset:0;stroke-opacity:1"
       d="m 174.12,251.5 238.76,0" /><path
       inkscape:connector-curvature="0"
       id="path254"
       style="fill:none;stroke:#000000;stroke-width:0.5;stroke-linecap:butt;stroke-linejoin:miter;stroke-miterlimit:10;stroke-dasharray:2, 2;stroke-dashoffset:0;stroke-opacity:1"
       d="m 174.12,386.88 238.76,0" /><path
       inkscape:connector-curvature="0"
       id="path256"
       style="fill:none;stroke:#000000;stroke-width:0.5;stroke-linecap:butt;stroke-linejoin:miter;stroke-miterlimit:10;stroke-dasharray:2, 2;stroke-dashoffset:0;stroke-opacity:1"
       d="m 174.12,345.5 238.76,0" /><path
       inkscape:connector-curvature="0"
       id="path258"
       style="fill:none;stroke:#000000;stroke-width:0.5;stroke-linecap:butt;stroke-linejoin:miter;stroke-miterlimit:10;stroke-dasharray:2, 2;stroke-dashoffset:0;stroke-opacity:1"
       d="m 135.09,225.61 0,-82.35 0,228.13" /><path
       inkscape:connector-curvature="0"
       id="path260"
       style="fill:none;stroke:#000000;stroke-width:0.5;stroke-linecap:butt;stroke-linejoin:miter;stroke-miterlimit:10;stroke-dasharray:2, 2;stroke-dashoffset:0;stroke-opacity:1"
       d="m 135.09,225.61 0,228.13 0,-82.34" /><path
       inkscape:connector-curvature="0"
       id="path262"
       style="fill:none;stroke:#000000;stroke-width:0.5;stroke-linecap:butt;stroke-linejoin:miter;stroke-miterlimit:10;stroke-dasharray:2, 2;stroke-dashoffset:0;stroke-opacity:1"
       d="m 451.91,225.61 0,-82.35 0,228.13" /><path
       inkscape:connector-curvature="0"
       id="path264"
       style="fill:none;stroke:#000000;stroke-width:0.5;stroke-linecap:butt;stroke-linejoin:miter;stroke-miterlimit:10;stroke-dasharray:2, 2;stroke-dashoffset:0;stroke-opacity:1"
       d="m 451.91,225.61 0,228.13 0,-82.34" /><path
       style="fill:none;fill-rule:evenodd;stroke:#000000;stroke-width:0.80000001px;stroke-linecap:butt;stroke-linejoin:miter;stroke-opacity:1"
       d="m 349.04081,298.57998 c 0.69834,-12.92438 -6.46102,-23.43975 -6.46102,-23.43975"
       id="path5688"
       inkscape:connector-curvature="0"
       sodipodi:nodetypes="cc" /><path
       inkscape:connector-curvature="0"
       id="path270"
       style="fill:none;stroke:#0000ff;stroke-width:1.12;stroke-linecap:butt;stroke-linejoin:miter;stroke-miterlimit:10;stroke-dasharray:none;stroke-opacity:1"
       d="m 293.82,298.5 1.38,-0.66 1.38,-0.65 1.39,-0.66 1.38,-0.65 1.38,-0.66 1.38,-0.65 1.39,-0.66 1.38,-0.65 1.38,-0.66 1.39,-0.66 1.38,-0.65 1.38,-0.66 1.39,-0.65 1.38,-0.66 1.38,-0.65 1.38,-0.66 1.39,-0.66 1.38,-0.65 1.38,-0.66 1.39,-0.65 1.38,-0.66 1.38,-0.65 1.39,-0.66 1.38,-0.65 1.38,-0.66 1.38,-0.66 1.39,-0.65 1.38,-0.66 1.38,-0.65 1.39,-0.66 1.38,-0.65 1.38,-0.66 1.39,-0.66 1.38,-0.65 1.38,-0.66 1.38,-0.65 1.39,-0.66 -0.16,0.08" /><path
       style="fill:none;fill-rule:evenodd;stroke:#000000;stroke-width:0.80000007px;stroke-linecap:butt;stroke-linejoin:miter;stroke-opacity:1"
       d="m 128.87178,298.52106 329.21558,0"
       id="path5622"
       inkscape:connector-curvature="0" /><path
       inkscape:connector-curvature="0"
       id="path272"
       style="fill:none;stroke:#0000ff;stroke-width:1.12;stroke-linecap:butt;stroke-linejoin:miter;stroke-miterlimit:10;stroke-dasharray:none;stroke-opacity:1"
       d="m 293.86,298.5 -1.38,0.67 -1.38,0.66 -1.38,0.67 -1.37,0.66 -1.38,0.67 -1.38,0.66 -1.38,0.67 -1.38,0.66 -1.38,0.67 -1.37,0.66 -1.38,0.67 -1.38,0.67 -1.38,0.66 -1.38,0.67 -1.38,0.66 -1.37,0.67 -1.38,0.66 -1.38,0.67 -1.38,0.66 -1.38,0.67 -1.38,0.66 -1.37,0.67 -1.38,0.67 -1.38,0.66 -1.38,0.67 -1.38,0.66 -1.38,0.67 -1.37,0.66 -1.38,0.67 -1.38,0.66 -1.38,0.67 -1.38,0.66 -1.38,0.67 -1.37,0.66 -1.38,0.67 -1.38,0.67 -1.38,0.66 -1.38,0.67 0.46,-0.23" /><path
       style="fill:none;fill-rule:evenodd;stroke:#ff0000;stroke-width:1.2;stroke-linecap:butt;stroke-linejoin:miter;stroke-opacity:1;stroke-miterlimit:8.80000019;stroke-dasharray:none"
       d="m 362.98946,258.25329 6.12964,12.98855 6.68152,-2.44398 -6.62239,-14.1514 z"
       id="path5620"
       inkscape:connector-curvature="0" /><path
       style="fill:none;fill-rule:evenodd;stroke:#ff0000;stroke-width:1.2;stroke-linecap:butt;stroke-linejoin:miter;stroke-opacity:1;stroke-miterlimit:8.80000019;stroke-dasharray:none"
       d="m 212.78353,334.92316 4.63172,8.7313 5.95226,-3.50828 -4.23754,-8.08089 z"
       id="path5618"
       inkscape:connector-curvature="0" /><path
       inkscape:connector-curvature="0"
       id="path280"
       style="fill:none;stroke:#ff00ff;stroke-width:1.2;stroke-linecap:butt;stroke-linejoin:miter;stroke-miterlimit:8.80000019;stroke-dasharray:none;stroke-opacity:1"
       d="m 386.86,263.52 0,-14.55 0,14.55 12.65,-4.74 0,-16.3 -12.65,6.69 12.65,-6.69 0,-0.22 -12.65,6.71 12.65,-6.71 0,16.36 -12.65,4.76 12.65,-4.76 0,0.16" /><path
       inkscape:connector-curvature="0"
       id="path282"
       style="fill:none;stroke:#ff00ff;stroke-width:1.2;stroke-linecap:butt;stroke-linejoin:miter;stroke-miterlimit:8.80000019;stroke-dasharray:none;stroke-opacity:1"
       d="m 200.14,347.9 0,-14.36 0,14.56 0,-0.2 -7.38,3.91 0,-15.5 7.38,-2.77 -7.38,2.77 0,0.15 7.38,-2.78 -7.38,2.78 0,15.56 7.38,-3.92 -7.38,3.92 0,-0.21" /><path
       inkscape:connector-curvature="0"
       id="path284"
       style="fill:none;stroke:#ff00ff;stroke-width:1.2;stroke-linecap:butt;stroke-linejoin:miter;stroke-miterlimit:8.80000019;stroke-dasharray:none;stroke-opacity:1"
       d="m 386.86,263.38 0,-14.41 0,14.87 0,-0.46 4.34,-1.63 0,-15.08 -4.34,2.3 4.34,-2.3 0,0.68 -4.34,2.27 4.34,-2.27 0,14.88 -4.34,1.61 4.34,-1.61 0,-0.48" /><path
       inkscape:connector-curvature="0"
       id="path286"
       style="fill:none;stroke:#ff00ff;stroke-width:1.2;stroke-linecap:butt;stroke-linejoin:miter;stroke-miterlimit:8.80000019;stroke-dasharray:none;stroke-opacity:1"
       d="m 438.29,243 0,-43.1 0,43.1 11.63,-4.46 0,-46.39 -11.63,7.9 11.63,-7.9 0,-0.17 -11.63,7.92 11.63,-7.92 0,46.47 -11.63,4.46 11.63,-4.46 0,0.09" /><path
       inkscape:connector-curvature="0"
       id="path288"
       style="fill:none;stroke:#ff00ff;stroke-width:1.2;stroke-linecap:butt;stroke-linejoin:miter;stroke-miterlimit:8.80000019;stroke-dasharray:none;stroke-opacity:1"
       d="m 438.29,233.89 0,-40.31 0,40.31 10.77,-4.8 0,-41.78 -10.77,7.7 10.77,-7.7 0,-1.53 -10.77,7.8 10.77,-7.8 0,42.35 -10.77,4.87 10.77,-4.87 0,0.96" /><path
       inkscape:connector-curvature="0"
       id="path290"
       style="fill:none;stroke:#ff00ff;stroke-width:1.2;stroke-linecap:butt;stroke-linejoin:miter;stroke-miterlimit:8.80000019;stroke-dasharray:none;stroke-opacity:1"
       d="m 148.71,402.63 0,-49.54 0,49.54 -9.83,7.07 0,-52.67 9.83,-3.72 -9.83,3.72 0,-0.23 9.83,-3.71 -9.83,3.71 0,52.46 9.83,-7.04 -9.83,7.04 0,0.44" /><path
       inkscape:connector-curvature="0"
       id="path292"
       style="fill:none;stroke:#ff00ff;stroke-width:1.2;stroke-linecap:butt;stroke-linejoin:miter;stroke-miterlimit:8.80000019;stroke-dasharray:none;stroke-opacity:1"
       d="m 200.14,346.42 0,-6.43 0,6.43 -12.1,6.21 0,-7.26 12.1,-5.38 -12.1,5.38 0,0.01 12.1,-5.38 -12.1,5.38 0,7.26 12.1,-6.22 -12.1,6.22 0,-0.01" /><path
       inkscape:connector-curvature="0"
       id="path294"
       style="fill:none;stroke:#ff00ff;stroke-width:1.2;stroke-linecap:butt;stroke-linejoin:miter;stroke-miterlimit:8.80000019;stroke-dasharray:none;stroke-opacity:1"
       d="m 386.86,257.01 0,-6.43 0,6.43 10.99,-4.88 0,-7.18 -10.99,5.63 10.99,-5.63 0,-0.01 -10.99,5.64 10.99,-5.64 0,7.18 -10.99,4.88 10.99,-4.88 0,0.01" /><path
       inkscape:connector-curvature="0"
       id="path296"
       style="fill:none;stroke:#008000;stroke-width:1.12;stroke-linecap:butt;stroke-linejoin:miter;stroke-miterlimit:10;stroke-dasharray:none;stroke-opacity:1;marker-end:url(#marker5403)"
       d="m 400.42,247.34 27.62,-13.21"
       sodipodi:nodetypes="cc" /><path
       inkscape:connector-curvature="0"
       id="path302"
       style="fill:none;stroke:#008000;stroke-width:1.12;stroke-linecap:butt;stroke-linejoin:miter;stroke-miterlimit:10;stroke-dasharray:none;stroke-opacity:1;marker-end:url(#Arrow1Mend)"
       d="m 458.66,219.9 27.59,-13.27"
       sodipodi:nodetypes="cc" /><path
       inkscape:connector-curvature="0"
       id="path308"
       style="fill:none;stroke:#008000;stroke-width:1.12;stroke-linecap:butt;stroke-linejoin:miter;stroke-miterlimit:10;stroke-dasharray:none;stroke-opacity:1;marker-end:url(#marker5473)"
       d="M 128.34,379.01 100.86,392.5"
       sodipodi:nodetypes="cc" /><g
       id="g5603"><path
         d="m 293.69,302.45 0,-7.88"
         style="fill:none;stroke:#ff0000;stroke-width:1.12;stroke-linecap:butt;stroke-linejoin:miter;stroke-miterlimit:10;stroke-dasharray:none;stroke-opacity:1"
         id="path314"
         inkscape:connector-curvature="0" /><path
         d="m 290.56,300.48 6.25,-3.94"
         style="fill:none;stroke:#ff0000;stroke-width:1.12;stroke-linecap:butt;stroke-linejoin:miter;stroke-miterlimit:10;stroke-dasharray:none;stroke-opacity:1"
         id="path316"
         inkscape:connector-curvature="0" /><path
         d="m 296.81,300.48 -6.25,-3.94"
         style="fill:none;stroke:#ff0000;stroke-width:1.12;stroke-linecap:butt;stroke-linejoin:miter;stroke-miterlimit:10;stroke-dasharray:none;stroke-opacity:1"
         id="path318"
         inkscape:connector-curvature="0" /><path
         d="m 293.69,298.51 0,-0.01 0,0.01"
         style="fill:none;stroke:#ff0000;stroke-width:1.12;stroke-linecap:butt;stroke-linejoin:miter;stroke-miterlimit:10;stroke-dasharray:none;stroke-opacity:1"
         id="path320"
         inkscape:connector-curvature="0" /><path
         d="m 293.69,298.51 0,-0.01 0,0.01"
         style="fill:#ff0000;fill-opacity:1;fill-rule:evenodd;stroke:none;stroke-width:1.12;stroke-miterlimit:10;stroke-dasharray:none"
         id="path322"
         inkscape:connector-curvature="0" /><path
         d="m 293.74,298.51 0.29,0 -0.69,0 0.4,0"
         style="fill:none;stroke:#ff0000;stroke-width:1.12;stroke-linecap:butt;stroke-linejoin:miter;stroke-miterlimit:10;stroke-dasharray:none;stroke-opacity:1"
         id="path324"
         inkscape:connector-curvature="0" /><path
         d="m 293.74,298.51 0.29,0 -0.69,0 0.4,0"
         style="fill:#ff0000;fill-opacity:1;fill-rule:evenodd;stroke:none;stroke-width:1.12;stroke-miterlimit:10;stroke-dasharray:none"
         id="path326"
         inkscape:connector-curvature="0" /><path
         d="m 294.01,298.51 -0.22,0 -0.05,-0.01 -0.11,0 -0.05,0.01 -0.24,0 0.69,0 -0.02,0"
         style="fill:none;stroke:#ff0000;stroke-width:1.12;stroke-linecap:butt;stroke-linejoin:miter;stroke-miterlimit:10;stroke-dasharray:none;stroke-opacity:1"
         id="path328"
         inkscape:connector-curvature="0" /><path
         d="m 294.01,298.51 -0.22,0 -0.05,-0.01 -0.11,0 -0.05,0.01 -0.24,0 0.69,0 -0.02,0"
         style="fill:#ff0000;fill-opacity:1;fill-rule:evenodd;stroke:none;stroke-width:1.12;stroke-miterlimit:10;stroke-dasharray:none"
         id="path330"
         inkscape:connector-curvature="0" /></g><g
       id="g5041"
       transform="translate(77.599578,100.79025)"><path
         d="m 78.6102,68.05 0,11.6801 4.0199,-1.4602 L 78.6102,68.05"
         style="fill:none;stroke:#000000;stroke-width:0.5;stroke-linecap:butt;stroke-linejoin:miter;stroke-miterlimit:10;stroke-dasharray:none;stroke-opacity:1"
         id="path332"
         inkscape:connector-curvature="0" /><path
         d="m 78.6102,68.05 4.0199,10.2199 1.6597,-3.55 -5.6796,-6.6699"
         style="fill:none;stroke:#000000;stroke-width:0.5;stroke-linecap:butt;stroke-linejoin:miter;stroke-miterlimit:10;stroke-dasharray:none;stroke-opacity:1"
         id="path334"
         inkscape:connector-curvature="0" /><path
         d="m 78.6102,68.05 -4.0204,10.2199 4.0204,1.4602 0,-11.6801"
         style="fill:none;stroke:#000000;stroke-width:0.5;stroke-linecap:butt;stroke-linejoin:miter;stroke-miterlimit:10;stroke-dasharray:none;stroke-opacity:1"
         id="path336"
         inkscape:connector-curvature="0" /><path
         d="m 78.6102,68.05 -5.6801,6.6699 1.6597,3.55 4.0204,-10.2199"
         style="fill:none;stroke:#000000;stroke-width:0.5;stroke-linecap:butt;stroke-linejoin:miter;stroke-miterlimit:10;stroke-dasharray:none;stroke-opacity:1"
         id="path338"
         inkscape:connector-curvature="0" /><path
         d="m 78.6102,68.05 5.6796,6.6699 -1.6597,-3.55 -4.0199,-3.1199"
         style="fill:none;stroke:#000000;stroke-width:0.5;stroke-linecap:butt;stroke-linejoin:miter;stroke-miterlimit:10;stroke-dasharray:none;stroke-opacity:1"
         id="path340"
         inkscape:connector-curvature="0" /><path
         d="m 78.6102,68.05 5.6796,6.6699 0,0 -5.6796,-6.6699"
         style="fill:none;stroke:#000000;stroke-width:0.5;stroke-linecap:butt;stroke-linejoin:miter;stroke-miterlimit:10;stroke-dasharray:none;stroke-opacity:1"
         id="path342"
         inkscape:connector-curvature="0" /><path
         d="m 78.6102,68.05 4.0199,3.1199 -4.0199,-1.4699 0,-1.65"
         style="fill:none;stroke:#000000;stroke-width:0.5;stroke-linecap:butt;stroke-linejoin:miter;stroke-miterlimit:10;stroke-dasharray:none;stroke-opacity:1"
         id="path344"
         inkscape:connector-curvature="0" /><path
         d="m 78.6102,68.05 -4.0204,3.1199 -1.6597,3.55 5.6801,-6.6699"
         style="fill:none;stroke:#000000;stroke-width:0.5;stroke-linecap:butt;stroke-linejoin:miter;stroke-miterlimit:10;stroke-dasharray:none;stroke-opacity:1"
         id="path346"
         inkscape:connector-curvature="0" /><path
         d="m 78.6102,68.05 0,1.65 -4.0204,1.4699 4.0204,-3.1199"
         style="fill:none;stroke:#000000;stroke-width:0.5;stroke-linecap:butt;stroke-linejoin:miter;stroke-miterlimit:10;stroke-dasharray:none;stroke-opacity:1"
         id="path348"
         inkscape:connector-curvature="0" /><path
         d="m 84.2898,74.7199 -1.6597,-3.55 -4.0199,-1.4699 -4.0204,1.4699 -1.6597,3.55 1.6597,3.55 4.0204,1.4602 4.0199,-1.4602 1.6597,-3.55"
         style="fill:none;stroke:#000000;stroke-width:0.5;stroke-linecap:butt;stroke-linejoin:miter;stroke-miterlimit:10;stroke-dasharray:none;stroke-opacity:1"
         id="path350"
         inkscape:connector-curvature="0" /><path
         d="m 78.6102,83.6102 0,-8.8903"
         style="fill:none;stroke:#000000;stroke-width:0.5;stroke-linecap:butt;stroke-linejoin:miter;stroke-miterlimit:10;stroke-dasharray:none;stroke-opacity:1"
         id="path352"
         inkscape:connector-curvature="0" /><path
         d="m 111.76,83.6102 -14.21,1.6597 0,3.3602 14.21,-5.0199"
         style="fill:none;stroke:#000000;stroke-width:0.5;stroke-linecap:butt;stroke-linejoin:miter;stroke-miterlimit:10;stroke-dasharray:none;stroke-opacity:1"
         id="path354"
         inkscape:connector-curvature="0" /><path
         d="m 111.76,83.6102 -14.21,-2.6704 0,4.3301 14.21,-1.6597"
         style="fill:none;stroke:#000000;stroke-width:0.5;stroke-linecap:butt;stroke-linejoin:miter;stroke-miterlimit:10;stroke-dasharray:none;stroke-opacity:1"
         id="path356"
         inkscape:connector-curvature="0" /><path
         d="m 111.76,83.6102 -14.21,5.0199 0,0.4097 14.21,-5.4296"
         style="fill:none;stroke:#000000;stroke-width:0.5;stroke-linecap:butt;stroke-linejoin:miter;stroke-miterlimit:10;stroke-dasharray:none;stroke-opacity:1"
         id="path358"
         inkscape:connector-curvature="0" /><path
         d="m 111.76,83.6102 -14.21,-5.4301 0,2.7597 14.21,2.6704"
         style="fill:none;stroke:#000000;stroke-width:0.5;stroke-linecap:butt;stroke-linejoin:miter;stroke-miterlimit:10;stroke-dasharray:none;stroke-opacity:1"
         id="path360"
         inkscape:connector-curvature="0" /><path
         d="m 111.76,83.6102 -14.21,5.4296 0,-2.7597 14.21,-2.6699"
         style="fill:none;stroke:#000000;stroke-width:0.5;stroke-linecap:butt;stroke-linejoin:miter;stroke-miterlimit:10;stroke-dasharray:none;stroke-opacity:1"
         id="path362"
         inkscape:connector-curvature="0" /><path
         d="m 111.76,83.6102 -14.21,-5.0204 0,0 14.21,5.0204"
         style="fill:none;stroke:#000000;stroke-width:0.5;stroke-linecap:butt;stroke-linejoin:miter;stroke-miterlimit:10;stroke-dasharray:none;stroke-opacity:1"
         id="path364"
         inkscape:connector-curvature="0" /><path
         d="m 111.76,83.6102 -14.21,-5.0204 0,-0.4097 14.21,5.4301"
         style="fill:none;stroke:#000000;stroke-width:0.5;stroke-linecap:butt;stroke-linejoin:miter;stroke-miterlimit:10;stroke-dasharray:none;stroke-opacity:1"
         id="path366"
         inkscape:connector-curvature="0" /><path
         d="m 111.76,83.6102 -14.21,2.6699 0,-4.3301 14.21,1.6602"
         style="fill:none;stroke:#000000;stroke-width:0.5;stroke-linecap:butt;stroke-linejoin:miter;stroke-miterlimit:10;stroke-dasharray:none;stroke-opacity:1"
         id="path368"
         inkscape:connector-curvature="0" /><path
         d="M 111.76,83.6102 97.55,81.95 l 0,-3.3602 14.21,5.0204"
         style="fill:none;stroke:#000000;stroke-width:0.5;stroke-linecap:butt;stroke-linejoin:miter;stroke-miterlimit:10;stroke-dasharray:none;stroke-opacity:1"
         id="path370"
         inkscape:connector-curvature="0" /><path
         d="m 97.55,78.5898 0,-0.4097 0,10.8597 0,-10.45"
         style="fill:none;stroke:#000000;stroke-width:0.5;stroke-linecap:butt;stroke-linejoin:miter;stroke-miterlimit:10;stroke-dasharray:none;stroke-opacity:1"
         id="path372"
         inkscape:connector-curvature="0" /><path
         d="m 78.6102,83.6102 18.9398,0"
         style="fill:none;stroke:#000000;stroke-width:0.5;stroke-linecap:butt;stroke-linejoin:miter;stroke-miterlimit:10;stroke-dasharray:none;stroke-opacity:1"
         id="path374"
         inkscape:connector-curvature="0" /><text
         y="-92.978165"
         x="109.11411"
         id="text378"
         style="font-variant:normal;font-weight:normal;font-size:10.47985172px;font-family:Helvetica;-inkscape-font-specification:Helvetica;writing-mode:lr-tb;fill:#000000;fill-opacity:1;fill-rule:nonzero;stroke:none"
         transform="matrix(1.0785036,-1.8823396e-4,-1.6182885e-4,-0.92721062,0,0)"><tspan
           id="tspan380"
           y="-92.978165"
           x="109.11411">Z</tspan></text>
<path
         d="m 78.6102,83.6102 0,-16.7204"
         style="fill:none;stroke:#000000;stroke-width:0.5;stroke-linecap:butt;stroke-linejoin:miter;stroke-miterlimit:10;stroke-dasharray:none;stroke-opacity:1"
         id="path382"
         inkscape:connector-curvature="0" /><path
         d="m 78.6102,54.3398 0,9.8801 L 82.6301,65 78.6102,54.3398"
         style="fill:none;stroke:#000000;stroke-width:0.5;stroke-linecap:butt;stroke-linejoin:miter;stroke-miterlimit:10;stroke-dasharray:none;stroke-opacity:1"
         id="path384"
         inkscape:connector-curvature="0" /><path
         d="m 78.6102,54.3398 0,9.8801 0,-9.8801"
         style="fill:none;stroke:#000000;stroke-width:0.5;stroke-linecap:butt;stroke-linejoin:miter;stroke-miterlimit:10;stroke-dasharray:none;stroke-opacity:1"
         id="path386"
         inkscape:connector-curvature="0" /><path
         d="M 78.6102,54.3398 74.5898,65 l 4.0204,-0.7801 0,-9.8801"
         style="fill:none;stroke:#000000;stroke-width:0.5;stroke-linecap:butt;stroke-linejoin:miter;stroke-miterlimit:10;stroke-dasharray:none;stroke-opacity:1"
         id="path388"
         inkscape:connector-curvature="0" /><path
         d="M 78.6102,54.3398 82.6301,65 l 1.6597,1.8898 -5.6796,-12.55"
         style="fill:none;stroke:#000000;stroke-width:0.5;stroke-linecap:butt;stroke-linejoin:miter;stroke-miterlimit:10;stroke-dasharray:none;stroke-opacity:1"
         id="path390"
         inkscape:connector-curvature="0" /><path
         d="M 78.6102,54.3398 72.9301,66.8898 74.5898,65 78.6102,54.3398"
         style="fill:none;stroke:#000000;stroke-width:0.5;stroke-linecap:butt;stroke-linejoin:miter;stroke-miterlimit:10;stroke-dasharray:none;stroke-opacity:1"
         id="path392"
         inkscape:connector-curvature="0" /><path
         d="m 78.6102,54.3398 5.6796,12.55 -1.6597,1.8801 -4.0199,-14.4301"
         style="fill:none;stroke:#000000;stroke-width:0.5;stroke-linecap:butt;stroke-linejoin:miter;stroke-miterlimit:10;stroke-dasharray:none;stroke-opacity:1"
         id="path394"
         inkscape:connector-curvature="0" /><path
         d="m 78.6102,54.3398 -4.0204,14.4301 -1.6597,-1.8801 5.6801,-12.55"
         style="fill:none;stroke:#000000;stroke-width:0.5;stroke-linecap:butt;stroke-linejoin:miter;stroke-miterlimit:10;stroke-dasharray:none;stroke-opacity:1"
         id="path396"
         inkscape:connector-curvature="0" /><path
         d="m 78.6102,54.3398 4.0199,14.4301 -4.0199,0.7801 0,-15.2102"
         style="fill:none;stroke:#000000;stroke-width:0.5;stroke-linecap:butt;stroke-linejoin:miter;stroke-miterlimit:10;stroke-dasharray:none;stroke-opacity:1"
         id="path398"
         inkscape:connector-curvature="0" /><path
         d="m 78.6102,54.3398 0,15.2102 -4.0204,-0.7801 4.0204,-14.4301"
         style="fill:none;stroke:#000000;stroke-width:0.5;stroke-linecap:butt;stroke-linejoin:miter;stroke-miterlimit:10;stroke-dasharray:none;stroke-opacity:1"
         id="path400"
         inkscape:connector-curvature="0" /><text
         y="-44.835602"
         x="62.931313"
         id="text404"
         style="font-variant:normal;font-weight:normal;font-size:10.47985172px;font-family:Helvetica;-inkscape-font-specification:Helvetica;writing-mode:lr-tb;fill:#000000;fill-opacity:1;fill-rule:nonzero;stroke:none"
         transform="matrix(1.0785036,-1.8823396e-4,-1.6182885e-4,-0.92721062,0,0)"><tspan
           id="tspan406"
           y="-44.835602"
           x="62.931313">X</tspan></text>
</g><text
       xml:space="preserve"
       style="font-style:normal;font-variant:normal;font-weight:normal;font-stretch:normal;font-size:20.35452843px;line-height:125%;font-family:sans-serif;-inkscape-font-specification:'sans-serif, Normal';text-align:start;letter-spacing:0px;word-spacing:0px;writing-mode:lr-tb;text-anchor:start;fill:#000000;fill-opacity:1;stroke:none;stroke-width:1px;stroke-linecap:butt;stroke-linejoin:miter;stroke-opacity:1"
       x="345.12503"
       y="-269.2937"
       id="text5624"
       sodipodi:linespacing="125%"
       transform="scale(0.95804963,-1.0437873)"><tspan
         sodipodi:role="line"
         id="tspan5630"
         x="345.12503"
         y="-269.2937">Θ</tspan></text>
</g></svg>