<?xml version="1.0" encoding="UTF-8" standalone="no"?>
<!-- Created with Inkscape (http://www.inkscape.org/) -->

<svg
   xmlns:dc="http://purl.org/dc/elements/1.1/"
   xmlns:cc="http://creativecommons.org/ns#"
   xmlns:rdf="http://www.w3.org/1999/02/22-rdf-syntax-ns#"
   xmlns:svg="http://www.w3.org/2000/svg"
   xmlns="http://www.w3.org/2000/svg"
   xmlns:sodipodi="http://sodipodi.sourceforge.net/DTD/sodipodi-0.dtd"
   xmlns:inkscape="http://www.inkscape.org/namespaces/inkscape"
   id="svg5510"
   version="1.1"
   inkscape:version="0.91 r13725"
   xml:space="preserve"
   width="607.09973"
   height="595.62738"
   viewBox="0 0 607.09973 595.62738"
   sodipodi:docname="tt_05.svg"><metadata
     id="metadata5516"><rdf:RDF><cc:Work
         rdf:about=""><dc:format>image/svg+xml</dc:format><dc:type
           rdf:resource="http://purl.org/dc/dcmitype/StillImage" /><dc:title></dc:title></cc:Work></rdf:RDF></metadata><defs
     id="defs5514"><clipPath
       clipPathUnits="userSpaceOnUse"
       id="clipPath5526"><path
         d="m 180,230 5510,0 0,5510 -5510,0 0,-5510 z"
         id="path5528"
         inkscape:connector-curvature="0" /></clipPath></defs><sodipodi:namedview
     pagecolor="#ffffff"
     bordercolor="#666666"
     borderopacity="1"
     objecttolerance="10"
     gridtolerance="10"
     guidetolerance="10"
     inkscape:pageopacity="0"
     inkscape:pageshadow="2"
     inkscape:window-width="1920"
     inkscape:window-height="1017"
     id="namedview5512"
     showgrid="false"
     fit-margin-top="0"
     fit-margin-left="0"
     fit-margin-right="0"
     fit-margin-bottom="0"
     inkscape:zoom="0.89691211"
     inkscape:cx="123.85807"
     inkscape:cy="226.9791"
     inkscape:window-x="-8"
     inkscape:window-y="-8"
     inkscape:window-maximized="1"
     inkscape:current-layer="g5518" /><g
     id="g5518"
     inkscape:groupmode="layer"
     inkscape:label="ink_ext_XXXXXX"
     transform="matrix(1.25,0,0,-1.25,-28.88775,714.9375)"><path
       inkscape:connector-curvature="0"
       id="path5532"
       style="fill:#0000ff;fill-opacity:1;fill-rule:evenodd;stroke:none"
       d="m 24.1199,531.14 483.66,0 0,39.7996 -483.66,0 0,-39.7996 z" /><path
       inkscape:connector-curvature="0"
       id="path5534"
       style="fill:none;stroke:#000000;stroke-width:0.80000001;stroke-linecap:butt;stroke-linejoin:miter;stroke-miterlimit:10;stroke-dasharray:none;stroke-opacity:1"
       d="m 24.1199,531.14 0,39.8 483.6601,0 0,-39.8 -483.6601,0" /><path
       inkscape:connector-curvature="0"
       id="path5536"
       style="fill:none;stroke:#000000;stroke-width:0.80000001;stroke-linecap:butt;stroke-linejoin:miter;stroke-miterlimit:10;stroke-dasharray:none;stroke-opacity:1"
       d="m 23.8199,530.84 0,39.79 483.6501,0 0,-39.79 -483.6501,0" /><path
       inkscape:connector-curvature="0"
       id="path5538"
       style="fill:none;stroke:#000000;stroke-width:0.80000001;stroke-linecap:butt;stroke-linejoin:miter;stroke-miterlimit:10;stroke-dasharray:none;stroke-opacity:1"
       d="m 24.4301,531.45 0,39.79 483.6499,0 0,-39.79 -483.6499,0" /><path
       inkscape:connector-curvature="0"
       id="path5540"
       style="fill:none;stroke:#000000;stroke-width:0.80000001;stroke-linecap:butt;stroke-linejoin:miter;stroke-miterlimit:10;stroke-dasharray:none;stroke-opacity:1"
       d="m 23.5102,530.53 0,39.8 483.6598,0 0,-39.8 -483.6598,0" /><path
       inkscape:connector-curvature="0"
       id="path5542"
       style="fill:none;stroke:#000000;stroke-width:0.80000001;stroke-linecap:butt;stroke-linejoin:miter;stroke-miterlimit:10;stroke-dasharray:none;stroke-opacity:1"
       d="m 24.7301,531.76 0,39.79 483.6599,0 0,-39.79 -483.6599,0" /><g
       id="g5544"><text
         id="text5546"
         style="font-variant:normal;font-weight:normal;font-size:7.85210991px;font-family:Helvetica;-inkscape-font-specification:Helvetica;writing-mode:lr-tb;fill:#ffff00;fill-opacity:1;fill-rule:nonzero;stroke:none"
         transform="matrix(0.790956,0,0,-1,31.171875,558.67)"><tspan
           id="tspan5548"
           sodipodi:role="line"
           y="0"
           x="0 5.9150171 11.178138 17.533188 21.704865 27.188244 32.23159 37.495205 43.849762 49.113369 58.548645 63.811764 69.075378 74.338501 80.69355 84.865219 90.128838 95.391945 100.65556 105.91866 111.18227 117.53682 121.05709 126.97211 133.32715 137.49883 143.85387 148.02554 153.28915 158.55226 163.81587 169.07898 174.34259 180.69763 184.6535 191.44414 194.30855 200.65965 207.01421 211.18637 216.44949 221.7131 226.97624 232.23985 237.50299 243.85805">Run:event 2566:208314 Date 911027 Time 215220 </tspan><tspan
           id="tspan5550"
           sodipodi:role="line"
           y="12.2398"
           x="0.2158231 5.9150209 11.178142 16.441755 20.617384 28.059927 37.495205 42.758324 49.113373 53.285042 58.548656 64.903214 68.639786 74.558754 80.913315 85.085487 91.220276 100.65556 105.91868 112.27372 116.4454 122.80044 126.53653 131.14824 138.81055 142.98222 148.24583 154.38062 163.81592 169.07903 175.43407 179.60623 185.96078 189.69737 196.48752 200.87946 207.01425 212.06204 217.54099 227.8519 232.23987 238.59444 242.7666 248.02974 254.3848 259.64792 269.95905 274.34702 280.70157 284.87375 290.13687 296.49194 301.75507 316.45346 322.80853 326.98019 332.24384 338.38257 343.86197">Ebeam 45.61 Evis 42.1 Emiss 49.1 Vtx ( -0.72, -0.10, 0.75) </tspan></text>
<text
         id="text5552"
         style="font-variant:normal;font-weight:normal;font-size:7.85214996px;font-family:Helvetica;-inkscape-font-specification:Helvetica;writing-mode:lr-tb;fill:#ffff00;fill-opacity:1;fill-rule:nonzero;stroke:none"
         transform="matrix(0.790956,0,0,-1,31.342578,534.18)"><tspan
           id="tspan5554"
           sodipodi:role="line"
           y="0"
           x="0 5.918972 10.852682 16.225931 22.580488 26.752657 32.016266 37.279385 43.634434 47.370518 53.069721 58.332836 63.816219 68.859566 75.434883 79.38678 85.741341 91.004951 95.17662 101.53168 105.70335 112.0584 121.27787 126.7573 132.89604 137.28403 142.76741 148.90219 152.96423 158.33748 164.69254 168.86421 174.12782 179.39093 184.65454 191.00909 194.74568 200.44487 207.0197 210.9716 216.23473 221.3882 226.76144 233.1165 237.28868 242.5518 247.81541 253.07852 259.43359 262.73392 268.86868 275.44351 279.39542 285.74997 289.81201 295.18576 301.54031 305.71249 310.97562 316.23923 321.50235 327.85739 331.59348 337.29269 342.55582 347.81943 353.95816 358.23602 363.60928 369.96432 374.13651 379.39963 384.66324 389.92636 396.2814">Bz=0.001 Bunchlet 1/1 Thrust=0.9982 Aplan=0.0005 Oblat=0.0034 Spher=0.0014 </tspan></text>
<text
         id="text5556"
         style="font-variant:normal;font-weight:normal;font-size:7.85210991px;font-family:Helvetica;-inkscape-font-specification:Helvetica;writing-mode:lr-tb;fill:#ffff00;fill-opacity:1;fill-rule:nonzero;stroke:none"
         transform="matrix(0.790956,0,0,-1,224.519,558.67)"><tspan
           id="tspan5558"
           sodipodi:role="line"
           y="0"
           x="0 7.0064535 12.053759 16.661503 22.580454 26.316526 32.121902 38.586601 48.021893 54.376457 58.113037 63.81176 67.987885 74.338493 79.491982 85.95668 90.128853 95.391983 101.74704 105.91872 112.05796 117.53688 121.27346 127.19244 132.23578 138.81061 143.63815 147.37422 153.17911 159.6443 169.07959 175.43416 179.17073 184.86946 189.04558 194.9606 200.54968 207.01439 211.18655 216.44968 222.80473 226.97641 233.11566 238.59457 242.11485 248.25017 253.29352 259.86835 264.69589 268.43201 274.23691 280.70157 284.87375 291.2283 294.9649 300.66357 304.83972 310.75473 316.34378 322.80844 332.24374 338.59879 342.77048 348.90924 354.38864">Ctrk(N= 4 Sump= 36.0) Ecal(N= 6 SumE= 16.1) Hcal(N= 7 SumE= 5.7) </tspan><tspan
           id="tspan5560"
           sodipodi:role="line"
           y="12.2398"
           x="104.829 111.17961 116.44323 121.70636 127.8456 131.58168 137.38655 143.85126 153.28654 159.42578 164.90471 168.6413 174.34001 179.82339 185.95818 189.69476 196.48492 200.87686 206.79581 210.53189 216.33727 222.80196 226.97414 233.11288 238.5923 242.54816 248.02757 253.29071 259.64575 264.69305 268.42914 274.23456 280.69922 284.87088 291.22595 294.96204 300.66122 304.83685 310.75238 316.34143 322.80609 332.24136 338.59595 342.7681 348.90686 354.38626">Muon(N= 1) Sec Vtx(N= 0) Fdet(N= 0 SumE= 0.0) </tspan></text>
</g><path
       inkscape:connector-curvature="0"
       id="path5638"
       style="fill:none;stroke:#000000;stroke-width:0.50662959;stroke-linecap:butt;stroke-linejoin:miter;stroke-miterlimit:10;stroke-dasharray:none;stroke-opacity:1"
       d="m 42.866879,148.4039 0,-14.39841 -4.073707,0 4.073707,14.39841" /><path
       inkscape:connector-curvature="0"
       id="path5640"
       style="fill:none;stroke:#000000;stroke-width:0.50662959;stroke-linecap:butt;stroke-linejoin:miter;stroke-miterlimit:10;stroke-dasharray:none;stroke-opacity:1"
       d="m 42.866879,148.4039 4.073201,-14.39841 -4.073201,0 0,14.39841" /><path
       inkscape:connector-curvature="0"
       id="path5642"
       style="fill:none;stroke:#000000;stroke-width:0.50662959;stroke-linecap:butt;stroke-linejoin:miter;stroke-miterlimit:10;stroke-dasharray:none;stroke-opacity:1"
       d="m 42.866879,148.4039 -4.073707,-14.39841 -1.681706,0 5.755413,14.39841" /><path
       inkscape:connector-curvature="0"
       id="path5644"
       style="fill:none;stroke:#000000;stroke-width:0.50662959;stroke-linecap:butt;stroke-linejoin:miter;stroke-miterlimit:10;stroke-dasharray:none;stroke-opacity:1"
       d="m 42.866879,148.4039 5.754907,-14.39841 -1.681706,0 -4.073201,14.39841" /><path
       inkscape:connector-curvature="0"
       id="path5646"
       style="fill:none;stroke:#000000;stroke-width:0.50662959;stroke-linecap:butt;stroke-linejoin:miter;stroke-miterlimit:10;stroke-dasharray:none;stroke-opacity:1"
       d="m 42.866879,148.4039 -5.755413,-14.39841 1.681706,0 4.073707,14.39841" /><path
       inkscape:connector-curvature="0"
       id="path5648"
       style="fill:none;stroke:#000000;stroke-width:0.50662959;stroke-linecap:butt;stroke-linejoin:miter;stroke-miterlimit:10;stroke-dasharray:none;stroke-opacity:1"
       d="m 42.866879,148.4039 4.073201,-14.39841 1.681706,0 -5.754907,14.39841" /><path
       inkscape:connector-curvature="0"
       id="path5650"
       style="fill:none;stroke:#000000;stroke-width:0.50662959;stroke-linecap:butt;stroke-linejoin:miter;stroke-miterlimit:10;stroke-dasharray:none;stroke-opacity:1"
       d="m 42.866879,148.4039 -4.073707,-14.39841 4.073707,0 0,14.39841" /><path
       inkscape:connector-curvature="0"
       id="path5652"
       style="fill:none;stroke:#000000;stroke-width:0.50662959;stroke-linecap:butt;stroke-linejoin:miter;stroke-miterlimit:10;stroke-dasharray:none;stroke-opacity:1"
       d="m 42.866879,148.4039 0,-14.39841 0,14.39841" /><path
       inkscape:connector-curvature="0"
       id="path5654"
       style="fill:none;stroke:#000000;stroke-width:0.50662959;stroke-linecap:butt;stroke-linejoin:miter;stroke-miterlimit:10;stroke-dasharray:none;stroke-opacity:1"
       d="m 42.866879,148.4039 0,-14.39841 4.073201,0 -4.073201,14.39841" /><path
       inkscape:connector-curvature="0"
       id="path5656"
       style="fill:none;stroke:#000000;stroke-width:0.50662959;stroke-linecap:butt;stroke-linejoin:miter;stroke-miterlimit:10;stroke-dasharray:none;stroke-opacity:1"
       d="m 42.866879,134.00549 5.754907,0 -11.51032,0 5.755413,0" /><path
       inkscape:connector-curvature="0"
       id="path5658"
       style="fill:none;stroke:#000000;stroke-width:0.50662959;stroke-linecap:butt;stroke-linejoin:miter;stroke-miterlimit:10;stroke-dasharray:none;stroke-opacity:1"
       d="m 42.866879,114.81456 0,19.19093" /><g
       id="g5660"
       transform="matrix(1.2243043,0,0,1.2243043,-47.124599,-0.52653739)"><text
         id="text5662"
         style="font-variant:normal;font-weight:normal;font-size:11.30258083px;font-family:Helvetica;-inkscape-font-specification:Helvetica;writing-mode:lr-tb;fill:#000000;fill-opacity:1;fill-rule:nonzero;stroke:none"
         transform="matrix(0.99999999,1.7453253e-4,1.5004943e-4,-0.85971955,69.7391,123.13)"><tspan
           id="tspan5664"
           y="0"
           x="0">Y</tspan></text>
</g><path
       inkscape:connector-curvature="0"
       id="path5666"
       style="fill:none;stroke:#000000;stroke-width:0.50662959;stroke-linecap:butt;stroke-linejoin:miter;stroke-miterlimit:10;stroke-dasharray:none;stroke-opacity:1"
       d="m 76.456217,114.81456 -14.398412,0 0,4.0732 14.398412,-4.0732" /><path
       inkscape:connector-curvature="0"
       id="path5668"
       style="fill:none;stroke:#000000;stroke-width:0.50662959;stroke-linecap:butt;stroke-linejoin:miter;stroke-miterlimit:10;stroke-dasharray:none;stroke-opacity:1"
       d="m 76.456217,114.81456 -14.398412,-4.0737 0,4.0737 14.398412,0" /><path
       inkscape:connector-curvature="0"
       id="path5670"
       style="fill:none;stroke:#000000;stroke-width:0.50662959;stroke-linecap:butt;stroke-linejoin:miter;stroke-miterlimit:10;stroke-dasharray:none;stroke-opacity:1"
       d="m 76.456217,114.81456 -14.398412,4.0732 0,1.68171 14.398412,-5.75491" /><path
       inkscape:connector-curvature="0"
       id="path5672"
       style="fill:none;stroke:#000000;stroke-width:0.50662959;stroke-linecap:butt;stroke-linejoin:miter;stroke-miterlimit:10;stroke-dasharray:none;stroke-opacity:1"
       d="m 76.456217,114.81456 -14.398412,-5.75541 0,1.68171 14.398412,4.0737" /><path
       inkscape:connector-curvature="0"
       id="path5674"
       style="fill:none;stroke:#000000;stroke-width:0.50662959;stroke-linecap:butt;stroke-linejoin:miter;stroke-miterlimit:10;stroke-dasharray:none;stroke-opacity:1"
       d="m 76.456217,114.81456 -14.398412,5.75491 0,-1.68171 14.398412,-4.0732" /><path
       inkscape:connector-curvature="0"
       id="path5676"
       style="fill:none;stroke:#000000;stroke-width:0.50662959;stroke-linecap:butt;stroke-linejoin:miter;stroke-miterlimit:10;stroke-dasharray:none;stroke-opacity:1"
       d="m 76.456217,114.81456 -14.398412,5.75491 0,0 14.398412,-5.75491" /><path
       inkscape:connector-curvature="0"
       id="path5678"
       style="fill:none;stroke:#000000;stroke-width:0.50662959;stroke-linecap:butt;stroke-linejoin:miter;stroke-miterlimit:10;stroke-dasharray:none;stroke-opacity:1"
       d="m 76.456217,114.81456 -14.398412,-4.0737 0,-1.68171 14.398412,5.75541" /><path
       inkscape:connector-curvature="0"
       id="path5680"
       style="fill:none;stroke:#000000;stroke-width:0.50662959;stroke-linecap:butt;stroke-linejoin:miter;stroke-miterlimit:10;stroke-dasharray:none;stroke-opacity:1"
       d="m 76.456217,114.81456 -14.398412,4.0732 0,-4.0732 14.398412,0" /><path
       inkscape:connector-curvature="0"
       id="path5682"
       style="fill:none;stroke:#000000;stroke-width:0.50662959;stroke-linecap:butt;stroke-linejoin:miter;stroke-miterlimit:10;stroke-dasharray:none;stroke-opacity:1"
       d="m 76.456217,114.81456 -14.398412,0 0,-4.0737 14.398412,4.0737" /><path
       inkscape:connector-curvature="0"
       id="path5684"
       style="fill:none;stroke:#000000;stroke-width:0.50662959;stroke-linecap:butt;stroke-linejoin:miter;stroke-miterlimit:10;stroke-dasharray:none;stroke-opacity:1"
       d="m 62.057805,120.56947 0,-11.51032 0,11.51032" /><path
       inkscape:connector-curvature="0"
       id="path5686"
       style="fill:none;stroke:#000000;stroke-width:0.50662959;stroke-linecap:butt;stroke-linejoin:miter;stroke-miterlimit:10;stroke-dasharray:none;stroke-opacity:1"
       d="m 42.866879,114.81456 19.190926,0" /><g
       id="g5688"
       transform="matrix(1.0132591,0,0,1.0132591,-36.785624,30.095768)"><text
         id="text5690"
         style="font-variant:normal;font-weight:normal;font-size:11.30255795px;font-family:Helvetica;-inkscape-font-specification:Helvetica;writing-mode:lr-tb;fill:#000000;fill-opacity:1;fill-rule:nonzero;stroke:none"
         transform="matrix(0.99999999,1.7453253e-4,1.5004943e-4,-0.85971955,118.129,74.7398)"><tspan
           id="tspan5692"
           y="0"
           x="0">X</tspan></text>
</g><path
       inkscape:connector-curvature="0"
       id="path5694"
       style="fill:none;stroke:#000000;stroke-width:0.50662959;stroke-linecap:butt;stroke-linejoin:miter;stroke-miterlimit:10;stroke-dasharray:none;stroke-opacity:1"
       d="m 42.866879,114.81456 0,0" /><path
       inkscape:connector-curvature="0"
       id="path5696"
       style="fill:none;stroke:#000000;stroke-width:0.50662959;stroke-linecap:butt;stroke-linejoin:miter;stroke-miterlimit:10;stroke-dasharray:none;stroke-opacity:1"
       d="m 42.866879,114.81456 4.073201,4.0732 -4.073201,1.68171 0,-5.75491" /><path
       inkscape:connector-curvature="0"
       id="path5698"
       style="fill:none;stroke:#000000;stroke-width:0.50662959;stroke-linecap:butt;stroke-linejoin:miter;stroke-miterlimit:10;stroke-dasharray:none;stroke-opacity:1"
       d="m 42.866879,114.81456 0,5.75491 -4.073707,-1.68171 4.073707,-4.0732" /><path
       inkscape:connector-curvature="0"
       id="path5700"
       style="fill:none;stroke:#000000;stroke-width:0.50662959;stroke-linecap:butt;stroke-linejoin:miter;stroke-miterlimit:10;stroke-dasharray:none;stroke-opacity:1"
       d="m 42.866879,114.81456 -4.073707,4.0732 -1.681706,-4.0732 5.755413,0" /><path
       inkscape:connector-curvature="0"
       id="path5702"
       style="fill:none;stroke:#000000;stroke-width:0.50662959;stroke-linecap:butt;stroke-linejoin:miter;stroke-miterlimit:10;stroke-dasharray:none;stroke-opacity:1"
       d="m 42.866879,114.81456 -5.755413,0 1.681706,-4.0737 4.073707,4.0737" /><path
       inkscape:connector-curvature="0"
       id="path5704"
       style="fill:none;stroke:#000000;stroke-width:0.50662959;stroke-linecap:butt;stroke-linejoin:miter;stroke-miterlimit:10;stroke-dasharray:none;stroke-opacity:1"
       d="m 42.866879,114.81456 -4.073707,-4.0737 4.073707,-1.68171 0,5.75541" /><path
       inkscape:connector-curvature="0"
       id="path5706"
       style="fill:none;stroke:#000000;stroke-width:0.50662959;stroke-linecap:butt;stroke-linejoin:miter;stroke-miterlimit:10;stroke-dasharray:none;stroke-opacity:1"
       d="m 42.866879,114.81456 0,-5.75541 4.073201,1.68171 -4.073201,4.0737" /><path
       inkscape:connector-curvature="0"
       id="path5708"
       style="fill:none;stroke:#000000;stroke-width:0.50662959;stroke-linecap:butt;stroke-linejoin:miter;stroke-miterlimit:10;stroke-dasharray:none;stroke-opacity:1"
       d="m 42.866879,114.81456 4.073201,-4.0737 1.681706,4.0737 -5.754907,0" /><path
       inkscape:connector-curvature="0"
       id="path5710"
       style="fill:none;stroke:#000000;stroke-width:0.50662959;stroke-linecap:butt;stroke-linejoin:miter;stroke-miterlimit:10;stroke-dasharray:none;stroke-opacity:1"
       d="m 42.866879,114.81456 5.754907,0 -5.754907,0" /><path
       inkscape:connector-curvature="0"
       id="path5712"
       style="fill:none;stroke:#000000;stroke-width:0.50662959;stroke-linecap:butt;stroke-linejoin:miter;stroke-miterlimit:10;stroke-dasharray:none;stroke-opacity:1"
       d="m 42.866879,114.81456 5.754907,0 -1.681706,4.0732 -4.073201,-4.0732" /><g
       id="g5714"
       transform="matrix(1.0132591,0,0,1.0132591,-36.785624,30.095768)"><text
         id="text5716"
         style="font-variant:normal;font-weight:normal;font-size:11.30255795px;font-family:Helvetica;-inkscape-font-specification:Helvetica;writing-mode:lr-tb;fill:#000000;fill-opacity:1;fill-rule:nonzero;stroke:none"
         transform="matrix(0.99999999,1.7453253e-4,1.5004943e-4,-0.85971955,64.0852,68.7699)"><tspan
           id="tspan5718"
           y="0"
           x="0">Z</tspan></text>
</g><path
       inkscape:connector-curvature="0"
       id="path5762"
       style="fill:none;stroke:#000000;stroke-width:0.6121521;stroke-linecap:butt;stroke-linejoin:miter;stroke-miterlimit:10;stroke-dasharray:none;stroke-opacity:1"
       d="m 273.73712,304.38788 -0.13467,0.85701 -0.22037,0.84478 -0.31833,0.80803 -0.39177,0.77132 -0.46524,0.72234 -0.55093,0.67336 -0.61216,0.61216 -0.67336,0.55093 -0.72235,0.46524 -0.77131,0.40401 -0.82028,0.30609 -0.83253,0.22037 -0.85701,0.13468 -0.86926,0.0489 -0.85701,-0.0489 -0.85701,-0.13468 -0.84477,-0.22037 -0.80804,-0.30609 -0.77132,-0.40401 -0.72234,-0.46524 -0.67336,-0.55093 -0.61215,-0.61216 -0.55094,-0.67336 -0.46524,-0.72234 -0.40401,-0.77132 -0.30608,-0.80803 -0.22037,-0.84478 -0.13469,-0.85701 -0.0489,-0.85701 0.0489,-0.86926 0.13469,-0.85701 0.22037,-0.84477 0.30608,-0.80804 0.40401,-0.77132 0.46524,-0.72234 0.55094,-0.67336 0.61215,-0.61215 0.67336,-0.55094 0.72234,-0.46524 0.77132,-0.39177 0.80804,-0.31832 0.84477,-0.22037 0.85701,-0.13468 0.85701,-0.0489 0.86926,0.0489 0.85701,0.13468 0.83253,0.22037 0.82028,0.31832 0.77131,0.39177 0.72235,0.46524 0.67336,0.55094 0.61216,0.61215 0.55093,0.67336 0.46524,0.72234 0.39177,0.77132 0.31833,0.80804 0.22037,0.84477 0.13467,0.85701 0.0489,0.86926 -0.0489,0.85701" /><path
       inkscape:connector-curvature="0"
       id="path5764"
       style="fill:none;stroke:#000000;stroke-width:0.6121521;stroke-linecap:butt;stroke-linejoin:miter;stroke-miterlimit:10;stroke-dasharray:none;stroke-opacity:1"
       d="m 273.73712,304.38788 -0.13467,0.85701 -0.22037,0.84478 -0.31833,0.80803 -0.39177,0.77132 -0.46524,0.72234 -0.55093,0.67336 -0.61216,0.61216 -0.67336,0.55093 -0.72235,0.46524 -0.77131,0.40401 -0.82028,0.30609 -0.83253,0.22037 -0.85701,0.13468 -0.86926,0.0489 -0.85701,-0.0489 -0.85701,-0.13468 -0.84477,-0.22037 -0.80804,-0.30609 -0.77132,-0.40401 -0.72234,-0.46524 -0.67336,-0.55093 -0.61215,-0.61216 -0.55094,-0.67336 -0.46524,-0.72234 -0.40401,-0.77132 -0.30608,-0.80803 -0.22037,-0.84478 -0.13469,-0.85701 -0.0489,-0.85701 0.0489,-0.86926 0.13469,-0.85701 0.22037,-0.84477 0.30608,-0.80804 0.40401,-0.77132 0.46524,-0.72234 0.55094,-0.67336 0.61215,-0.61215 0.67336,-0.55094 0.72234,-0.46524 0.77132,-0.39177 0.80804,-0.31832 0.84477,-0.22037 0.85701,-0.13468 0.85701,-0.0489 0.86926,0.0489 0.85701,0.13468 0.83253,0.22037 0.82028,0.31832 0.77131,0.39177 0.72235,0.46524 0.67336,0.55094 0.61216,0.61215 0.55093,0.67336 0.46524,0.72234 0.39177,0.77132 0.31833,0.80804 0.22037,0.84477 0.13467,0.85701 0.0489,0.86926 -0.0489,0.85701" /><path
       inkscape:connector-curvature="0"
       id="path5766"
       style="fill:none;stroke:#00ff00;stroke-width:0.6121521;stroke-linecap:butt;stroke-linejoin:miter;stroke-miterlimit:10;stroke-dasharray:none;stroke-opacity:1"
       d="m 268.44812,303.83694 -0.0489,0.30608 -0.0857,0.29383 -0.11018,0.29384 -0.13467,0.26934 -0.1714,0.26936 -0.1959,0.23261 -0.22037,0.22037 -0.23262,0.1959 -0.26935,0.1714 -0.26934,0.13467 -0.29384,0.12242 -0.29383,0.0735 -0.30608,0.0489 -0.31832,0.0123 -0.30607,-0.0123 -0.30608,-0.0489 -0.29383,-0.0735 -0.29384,-0.12242 -0.26934,-0.13467 -0.26934,-0.1714 -0.23263,-0.1959 -0.22037,-0.22037 -0.19589,-0.23261 -0.1714,-0.26936 -0.13467,-0.26934 -0.12243,-0.29384 -0.0735,-0.29383 -0.0489,-0.30608 -0.0123,-0.30607 0.0123,-0.31832 0.0489,-0.30608 0.0735,-0.29383 0.12243,-0.29384 0.13467,-0.26934 0.1714,-0.26934 0.19589,-0.23263 0.22037,-0.22037 0.23263,-0.19589 0.26934,-0.1714 0.26934,-0.13467 0.29384,-0.11019 0.29383,-0.0857 0.30608,-0.0489 0.30607,-0.0123 0.31832,0.0123 0.30608,0.0489 0.29383,0.0857 0.29384,0.11019 0.26934,0.13467 0.26935,0.1714 0.23262,0.19589 0.22037,0.22037 0.1959,0.23263 0.1714,0.26934 0.13467,0.26934 0.11018,0.29384 0.0857,0.29383 0.0489,0.30608 0.0123,0.31832 -0.0123,0.30607" /><path
       inkscape:connector-curvature="0"
       id="path5768"
       style="fill:none;stroke:#000000;stroke-width:0.6121521;stroke-linecap:butt;stroke-linejoin:miter;stroke-miterlimit:10;stroke-dasharray:none;stroke-opacity:1"
       d="m 268.44812,303.83694 -0.0489,0.30608 -0.0857,0.29383 -0.11018,0.29384 -0.13467,0.26934 -0.1714,0.26936 -0.1959,0.23261 -0.22037,0.22037 -0.23262,0.1959 -0.26935,0.1714 -0.26934,0.13467 -0.29384,0.12242 -0.29383,0.0735 -0.30608,0.0489 -0.31832,0.0123 -0.30607,-0.0123 -0.30608,-0.0489 -0.29383,-0.0735 -0.29384,-0.12242 -0.26934,-0.13467 -0.26934,-0.1714 -0.23263,-0.1959 -0.22037,-0.22037 -0.19589,-0.23261 -0.1714,-0.26936 -0.13467,-0.26934 -0.12243,-0.29384 -0.0735,-0.29383 -0.0489,-0.30608 -0.0123,-0.30607 0.0123,-0.31832 0.0489,-0.30608 0.0735,-0.29383 0.12243,-0.29384 0.13467,-0.26934 0.1714,-0.26934 0.19589,-0.23263 0.22037,-0.22037 0.23263,-0.19589 0.26934,-0.1714 0.26934,-0.13467 0.29384,-0.11019 0.29383,-0.0857 0.30608,-0.0489 0.30607,-0.0123 0.31832,0.0123 0.30608,0.0489 0.29383,0.0857 0.29384,0.11019 0.26934,0.13467 0.26935,0.1714 0.23262,0.19589 0.22037,0.22037 0.1959,0.23263 0.1714,0.26934 0.13467,0.26934 0.11018,0.29384 0.0857,0.29383 0.0489,0.30608 0.0123,0.31832 -0.0123,0.30607" /><path
       inkscape:connector-curvature="0"
       id="path5770"
       style="fill:none;stroke:#000000;stroke-width:0.6121521;stroke-linecap:butt;stroke-linejoin:miter;stroke-miterlimit:10;stroke-dasharray:none;stroke-opacity:1"
       d="m 337.58459,312.43156 -1.78748,0 0,-17.80139 1.78748,0 0,17.80139" /><path
       inkscape:connector-curvature="0"
       id="path5772"
       style="fill:none;stroke:#000000;stroke-width:0.6121521;stroke-linecap:butt;stroke-linejoin:miter;stroke-miterlimit:10;stroke-dasharray:none;stroke-opacity:1"
       d="m 337.58459,312.43156 -1.78748,0 0,-17.80139 1.78748,0 0,17.80139" /><path
       inkscape:connector-curvature="0"
       id="path5774"
       style="fill:none;stroke:#000000;stroke-width:0.6121521;stroke-linecap:butt;stroke-linejoin:miter;stroke-miterlimit:10;stroke-dasharray:none;stroke-opacity:1"
       d="m 332.82205,330.78388 -1.72627,-0.46524 4.60338,-17.18923 1.73852,0.453 -4.61563,17.20147" /><path
       inkscape:connector-curvature="0"
       id="path5776"
       style="fill:none;stroke:#000000;stroke-width:0.6121521;stroke-linecap:butt;stroke-linejoin:miter;stroke-miterlimit:10;stroke-dasharray:none;stroke-opacity:1"
       d="m 332.82205,330.78388 -1.72627,-0.46524 4.60338,-17.18923 1.73852,0.453 -4.61563,17.20147" /><path
       inkscape:connector-curvature="0"
       id="path5778"
       style="fill:none;stroke:#000000;stroke-width:0.6121521;stroke-linecap:butt;stroke-linejoin:miter;stroke-miterlimit:10;stroke-dasharray:none;stroke-opacity:1"
       d="m 323.4806,347.27526 -1.55487,-0.89375 8.9007,-15.41398 1.55487,0.89374 -8.9007,15.41399" /><path
       inkscape:connector-curvature="0"
       id="path5780"
       style="fill:none;stroke:#000000;stroke-width:0.6121521;stroke-linecap:butt;stroke-linejoin:miter;stroke-miterlimit:10;stroke-dasharray:none;stroke-opacity:1"
       d="m 323.4806,347.27526 -1.55487,-0.89375 8.9007,-15.41398 1.55487,0.89374 -8.9007,15.41399" /><path
       inkscape:connector-curvature="0"
       id="path5782"
       style="fill:none;stroke:#000000;stroke-width:0.6121521;stroke-linecap:butt;stroke-linejoin:miter;stroke-miterlimit:10;stroke-dasharray:none;stroke-opacity:1"
       d="m 310.18466,360.79158 -1.27328,-1.27327 12.58586,-12.58586 1.27327,1.27328 -12.58585,12.58585" /><path
       inkscape:connector-curvature="0"
       id="path5784"
       style="fill:none;stroke:#000000;stroke-width:0.6121521;stroke-linecap:butt;stroke-linejoin:miter;stroke-miterlimit:10;stroke-dasharray:none;stroke-opacity:1"
       d="m 310.18466,360.79158 -1.27328,-1.27327 12.58586,-12.58586 1.27327,1.27328 -12.58585,12.58585" /><path
       inkscape:connector-curvature="0"
       id="path5786"
       style="fill:none;stroke:#000000;stroke-width:0.6121521;stroke-linecap:butt;stroke-linejoin:miter;stroke-miterlimit:10;stroke-dasharray:none;stroke-opacity:1"
       d="m 293.8402,370.40237 -0.89374,-1.55486 15.41398,-8.90071 0.89375,1.55487 -15.41399,8.9007" /><path
       inkscape:connector-curvature="0"
       id="path5788"
       style="fill:none;stroke:#000000;stroke-width:0.6121521;stroke-linecap:butt;stroke-linejoin:miter;stroke-miterlimit:10;stroke-dasharray:none;stroke-opacity:1"
       d="m 293.8402,370.40237 -0.89374,-1.55486 15.41398,-8.90071 0.89375,1.55487 -15.41399,8.9007" /><path
       inkscape:connector-curvature="0"
       id="path5790"
       style="fill:none;stroke:#000000;stroke-width:0.6121521;stroke-linecap:butt;stroke-linejoin:miter;stroke-miterlimit:10;stroke-dasharray:none;stroke-opacity:1"
       d="m 275.56134,375.45875 -0.45299,-1.73852 17.18923,-4.60338 0.46523,1.72627 -17.20147,4.61563" /><path
       inkscape:connector-curvature="0"
       id="path5792"
       style="fill:none;stroke:#000000;stroke-width:0.6121521;stroke-linecap:butt;stroke-linejoin:miter;stroke-miterlimit:10;stroke-dasharray:none;stroke-opacity:1"
       d="m 275.56134,375.45875 -0.45299,-1.73852 17.18923,-4.60338 0.46523,1.72627 -17.20147,4.61563" /><path
       inkscape:connector-curvature="0"
       id="path5794"
       style="fill:none;stroke:#000000;stroke-width:0.6121521;stroke-linecap:butt;stroke-linejoin:miter;stroke-miterlimit:10;stroke-dasharray:none;stroke-opacity:1"
       d="m 256.6091,375.60566 0,-1.78748 17.80139,0 0,1.78748 -17.80139,0" /><path
       inkscape:connector-curvature="0"
       id="path5796"
       style="fill:none;stroke:#000000;stroke-width:0.6121521;stroke-linecap:butt;stroke-linejoin:miter;stroke-miterlimit:10;stroke-dasharray:none;stroke-opacity:1"
       d="m 256.6091,375.60566 0,-1.78748 17.80139,0 0,1.78748 -17.80139,0" /><path
       inkscape:connector-curvature="0"
       id="path5798"
       style="fill:none;stroke:#000000;stroke-width:0.6121521;stroke-linecap:butt;stroke-linejoin:miter;stroke-miterlimit:10;stroke-dasharray:none;stroke-opacity:1"
       d="m 238.25678,370.84312 0.46524,-1.72627 17.18923,4.60338 -0.45299,1.73852 -17.20148,-4.61563" /><path
       inkscape:connector-curvature="0"
       id="path5800"
       style="fill:none;stroke:#000000;stroke-width:0.6121521;stroke-linecap:butt;stroke-linejoin:miter;stroke-miterlimit:10;stroke-dasharray:none;stroke-opacity:1"
       d="m 238.25678,370.84312 0.46524,-1.72627 17.18923,4.60338 -0.45299,1.73852 -17.20148,-4.61563" /><path
       inkscape:connector-curvature="0"
       id="path5802"
       style="fill:none;stroke:#000000;stroke-width:0.6121521;stroke-linecap:butt;stroke-linejoin:miter;stroke-miterlimit:10;stroke-dasharray:none;stroke-opacity:1"
       d="m 221.7654,361.50167 0.89375,-1.55487 15.41399,8.90071 -0.89375,1.55486 -15.41399,-8.9007" /><path
       inkscape:connector-curvature="0"
       id="path5804"
       style="fill:none;stroke:#000000;stroke-width:0.6121521;stroke-linecap:butt;stroke-linejoin:miter;stroke-miterlimit:10;stroke-dasharray:none;stroke-opacity:1"
       d="m 221.7654,361.50167 0.89375,-1.55487 15.41399,8.90071 -0.89375,1.55486 -15.41399,-8.9007" /><path
       inkscape:connector-curvature="0"
       id="path5806"
       style="fill:none;stroke:#000000;stroke-width:0.6121521;stroke-linecap:butt;stroke-linejoin:miter;stroke-miterlimit:10;stroke-dasharray:none;stroke-opacity:1"
       d="m 208.24908,348.20573 1.27328,-1.27328 12.58585,12.58586 -1.27327,1.27327 -12.58586,-12.58585" /><path
       inkscape:connector-curvature="0"
       id="path5808"
       style="fill:none;stroke:#000000;stroke-width:0.6121521;stroke-linecap:butt;stroke-linejoin:miter;stroke-miterlimit:10;stroke-dasharray:none;stroke-opacity:1"
       d="m 208.24908,348.20573 1.27328,-1.27328 12.58585,12.58586 -1.27327,1.27327 -12.58586,-12.58585" /><path
       inkscape:connector-curvature="0"
       id="path5810"
       style="fill:none;stroke:#000000;stroke-width:0.6121521;stroke-linecap:butt;stroke-linejoin:miter;stroke-miterlimit:10;stroke-dasharray:none;stroke-opacity:1"
       d="m 198.6383,331.86127 1.55486,-0.89374 8.9007,15.41398 -1.55487,0.89375 -8.90069,-15.41399" /><path
       inkscape:connector-curvature="0"
       id="path5812"
       style="fill:none;stroke:#000000;stroke-width:0.6121521;stroke-linecap:butt;stroke-linejoin:miter;stroke-miterlimit:10;stroke-dasharray:none;stroke-opacity:1"
       d="m 198.6383,331.86127 1.55486,-0.89374 8.9007,15.41398 -1.55487,0.89375 -8.90069,-15.41399" /><path
       inkscape:connector-curvature="0"
       id="path5814"
       style="fill:none;stroke:#000000;stroke-width:0.6121521;stroke-linecap:butt;stroke-linejoin:miter;stroke-miterlimit:10;stroke-dasharray:none;stroke-opacity:1"
       d="m 193.58192,313.58241 1.73851,-0.453 4.60339,17.18923 -1.72627,0.46524 -4.61563,-17.20147" /><path
       inkscape:connector-curvature="0"
       id="path5816"
       style="fill:none;stroke:#000000;stroke-width:0.6121521;stroke-linecap:butt;stroke-linejoin:miter;stroke-miterlimit:10;stroke-dasharray:none;stroke-opacity:1"
       d="m 193.58192,313.58241 1.73851,-0.453 4.60339,17.18923 -1.72627,0.46524 -4.61563,-17.20147" /><path
       inkscape:connector-curvature="0"
       id="path5818"
       style="fill:none;stroke:#000000;stroke-width:0.6121521;stroke-linecap:butt;stroke-linejoin:miter;stroke-miterlimit:10;stroke-dasharray:none;stroke-opacity:1"
       d="m 193.435,294.63017 1.78749,0 0,17.80139 -1.78749,0 0,-17.80139" /><path
       inkscape:connector-curvature="0"
       id="path5820"
       style="fill:none;stroke:#000000;stroke-width:0.6121521;stroke-linecap:butt;stroke-linejoin:miter;stroke-miterlimit:10;stroke-dasharray:none;stroke-opacity:1"
       d="m 193.435,294.63017 1.78749,0 0,17.80139 -1.78749,0 0,-17.80139" /><path
       inkscape:connector-curvature="0"
       id="path5822"
       style="fill:none;stroke:#000000;stroke-width:0.6121521;stroke-linecap:butt;stroke-linejoin:miter;stroke-miterlimit:10;stroke-dasharray:none;stroke-opacity:1"
       d="m 198.19755,276.27785 1.72627,0.46524 -4.60339,17.18923 -1.73851,-0.45299 4.61563,-17.20148" /><path
       inkscape:connector-curvature="0"
       id="path5824"
       style="fill:none;stroke:#000000;stroke-width:0.6121521;stroke-linecap:butt;stroke-linejoin:miter;stroke-miterlimit:10;stroke-dasharray:none;stroke-opacity:1"
       d="m 198.19755,276.27785 1.72627,0.46524 -4.60339,17.18923 -1.73851,-0.45299 4.61563,-17.20148" /><path
       inkscape:connector-curvature="0"
       id="path5826"
       style="fill:none;stroke:#000000;stroke-width:0.6121521;stroke-linecap:butt;stroke-linejoin:miter;stroke-miterlimit:10;stroke-dasharray:none;stroke-opacity:1"
       d="m 207.53899,259.78647 1.55487,0.89375 -8.9007,15.41399 -1.55486,-0.89375 8.90069,-15.41399" /><path
       inkscape:connector-curvature="0"
       id="path5828"
       style="fill:none;stroke:#000000;stroke-width:0.6121521;stroke-linecap:butt;stroke-linejoin:miter;stroke-miterlimit:10;stroke-dasharray:none;stroke-opacity:1"
       d="m 207.53899,259.78647 1.55487,0.89375 -8.9007,15.41399 -1.55486,-0.89375 8.90069,-15.41399" /><path
       inkscape:connector-curvature="0"
       id="path5830"
       style="fill:none;stroke:#000000;stroke-width:0.6121521;stroke-linecap:butt;stroke-linejoin:miter;stroke-miterlimit:10;stroke-dasharray:none;stroke-opacity:1"
       d="m 220.83494,246.27015 1.27327,1.27328 -12.58585,12.58585 -1.27328,-1.27327 12.58586,-12.58586" /><path
       inkscape:connector-curvature="0"
       id="path5832"
       style="fill:none;stroke:#000000;stroke-width:0.6121521;stroke-linecap:butt;stroke-linejoin:miter;stroke-miterlimit:10;stroke-dasharray:none;stroke-opacity:1"
       d="m 220.83494,246.27015 1.27327,1.27328 -12.58585,12.58585 -1.27328,-1.27327 12.58586,-12.58586" /><path
       inkscape:connector-curvature="0"
       id="path5834"
       style="fill:none;stroke:#000000;stroke-width:0.6121521;stroke-linecap:butt;stroke-linejoin:miter;stroke-miterlimit:10;stroke-dasharray:none;stroke-opacity:1"
       d="m 237.17939,236.65937 0.89375,1.55487 -15.41399,8.90069 -0.89375,-1.55487 15.41399,-8.90069" /><path
       inkscape:connector-curvature="0"
       id="path5836"
       style="fill:none;stroke:#000000;stroke-width:0.6121521;stroke-linecap:butt;stroke-linejoin:miter;stroke-miterlimit:10;stroke-dasharray:none;stroke-opacity:1"
       d="m 237.17939,236.65937 0.89375,1.55487 -15.41399,8.90069 -0.89375,-1.55487 15.41399,-8.90069" /><path
       inkscape:connector-curvature="0"
       id="path5838"
       style="fill:none;stroke:#000000;stroke-width:0.6121521;stroke-linecap:butt;stroke-linejoin:miter;stroke-miterlimit:10;stroke-dasharray:none;stroke-opacity:1"
       d="m 255.45826,231.60299 0.45299,1.73851 -17.18923,4.60339 -0.46524,-1.72627 17.20148,-4.61563" /><path
       inkscape:connector-curvature="0"
       id="path5840"
       style="fill:none;stroke:#000000;stroke-width:0.6121521;stroke-linecap:butt;stroke-linejoin:miter;stroke-miterlimit:10;stroke-dasharray:none;stroke-opacity:1"
       d="m 255.45826,231.60299 0.45299,1.73851 -17.18923,4.60339 -0.46524,-1.72627 17.20148,-4.61563" /><path
       inkscape:connector-curvature="0"
       id="path5842"
       style="fill:none;stroke:#000000;stroke-width:0.6121521;stroke-linecap:butt;stroke-linejoin:miter;stroke-miterlimit:10;stroke-dasharray:none;stroke-opacity:1"
       d="m 274.41049,231.45607 0,1.78749 -17.80139,0 0,-1.78749 17.80139,0" /><path
       inkscape:connector-curvature="0"
       id="path5844"
       style="fill:none;stroke:#000000;stroke-width:0.6121521;stroke-linecap:butt;stroke-linejoin:miter;stroke-miterlimit:10;stroke-dasharray:none;stroke-opacity:1"
       d="m 274.41049,231.45607 0,1.78749 -17.80139,0 0,-1.78749 17.80139,0" /><path
       inkscape:connector-curvature="0"
       id="path5846"
       style="fill:none;stroke:#000000;stroke-width:0.6121521;stroke-linecap:butt;stroke-linejoin:miter;stroke-miterlimit:10;stroke-dasharray:none;stroke-opacity:1"
       d="m 292.76281,236.21862 -0.46523,1.72627 -17.18923,-4.60339 0.45299,-1.73851 17.20147,4.61563" /><path
       inkscape:connector-curvature="0"
       id="path5848"
       style="fill:none;stroke:#000000;stroke-width:0.6121521;stroke-linecap:butt;stroke-linejoin:miter;stroke-miterlimit:10;stroke-dasharray:none;stroke-opacity:1"
       d="m 292.76281,236.21862 -0.46523,1.72627 -17.18923,-4.60339 0.45299,-1.73851 17.20147,4.61563" /><path
       inkscape:connector-curvature="0"
       id="path5850"
       style="fill:none;stroke:#000000;stroke-width:0.6121521;stroke-linecap:butt;stroke-linejoin:miter;stroke-miterlimit:10;stroke-dasharray:none;stroke-opacity:1"
       d="m 309.25419,245.56006 -0.89375,1.55487 -15.41398,-8.90069 0.89374,-1.55487 15.41399,8.90069" /><path
       inkscape:connector-curvature="0"
       id="path5852"
       style="fill:none;stroke:#000000;stroke-width:0.6121521;stroke-linecap:butt;stroke-linejoin:miter;stroke-miterlimit:10;stroke-dasharray:none;stroke-opacity:1"
       d="m 309.25419,245.56006 -0.89375,1.55487 -15.41398,-8.90069 0.89374,-1.55487 15.41399,8.90069" /><path
       inkscape:connector-curvature="0"
       id="path5854"
       style="fill:none;stroke:#000000;stroke-width:0.6121521;stroke-linecap:butt;stroke-linejoin:miter;stroke-miterlimit:10;stroke-dasharray:none;stroke-opacity:1"
       d="m 322.77051,258.85601 -1.27327,1.27327 -12.58586,-12.58585 1.27328,-1.27328 12.58585,12.58586" /><path
       inkscape:connector-curvature="0"
       id="path5856"
       style="fill:none;stroke:#000000;stroke-width:0.6121521;stroke-linecap:butt;stroke-linejoin:miter;stroke-miterlimit:10;stroke-dasharray:none;stroke-opacity:1"
       d="m 322.77051,258.85601 -1.27327,1.27327 -12.58586,-12.58585 1.27328,-1.27328 12.58585,12.58586" /><path
       inkscape:connector-curvature="0"
       id="path5858"
       style="fill:none;stroke:#000000;stroke-width:0.6121521;stroke-linecap:butt;stroke-linejoin:miter;stroke-miterlimit:10;stroke-dasharray:none;stroke-opacity:1"
       d="m 332.3813,275.20046 -1.55487,0.89375 -8.9007,-15.41399 1.55487,-0.89375 8.9007,15.41399" /><path
       inkscape:connector-curvature="0"
       id="path5860"
       style="fill:none;stroke:#000000;stroke-width:0.6121521;stroke-linecap:butt;stroke-linejoin:miter;stroke-miterlimit:10;stroke-dasharray:none;stroke-opacity:1"
       d="m 332.3813,275.20046 -1.55487,0.89375 -8.9007,-15.41399 1.55487,-0.89375 8.9007,15.41399" /><path
       inkscape:connector-curvature="0"
       id="path5862"
       style="fill:none;stroke:#000000;stroke-width:0.6121521;stroke-linecap:butt;stroke-linejoin:miter;stroke-miterlimit:10;stroke-dasharray:none;stroke-opacity:1"
       d="m 337.43768,293.47933 -1.73852,0.45299 -4.60338,-17.18923 1.72627,-0.46524 4.61563,17.20148" /><path
       inkscape:connector-curvature="0"
       id="path5864"
       style="fill:none;stroke:#000000;stroke-width:0.6121521;stroke-linecap:butt;stroke-linejoin:miter;stroke-miterlimit:10;stroke-dasharray:none;stroke-opacity:1"
       d="m 337.43768,293.47933 -1.73852,0.45299 -4.60338,-17.18923 1.72627,-0.46524 4.61563,17.20148" /><path
       inkscape:connector-curvature="0"
       id="path5866"
       style="fill:none;stroke:#000000;stroke-width:0.6121521;stroke-linecap:butt;stroke-linejoin:miter;stroke-miterlimit:10;stroke-dasharray:2.44860854, 2.44860854;stroke-dashoffset:0;stroke-opacity:1"
       d="m 356.83066,313.12941 -1.5059,9.48836 -2.48534,9.29247 -3.45254,8.96191 -4.35852,8.57013 -5.24002,8.05592 -6.04807,7.46826 -6.79488,6.79488 -7.46826,6.04807 -8.05593,5.24002 -8.57012,4.35852 -8.96191,3.45254 -9.29247,2.48534 -9.48835,1.5059 -9.59856,0.50196 -9.59854,-0.50196 -9.48836,-1.5059 -9.29247,-2.48534 -8.9619,-3.45254 -8.57014,-4.35852 -8.05591,-5.24002 -7.46826,-6.04807 -6.79488,-6.79488 -6.04808,-7.46826 -5.24002,-8.05592 -4.35852,-8.57013 -3.45254,-8.96191 -2.48533,-9.29247 -1.5059,-9.48836 -0.50197,-9.59854 0.50197,-9.59855 1.5059,-9.48836 2.48533,-9.29247 3.45254,-8.9619 4.35852,-8.57013 5.24002,-8.05592 6.04808,-7.46826 6.79488,-6.79489 7.46826,-6.04807 8.05591,-5.24002 8.57014,-4.35852 8.9619,-3.45254 9.29247,-2.48533 9.48836,-1.5059 9.59854,-0.50196 9.59856,0.50196 9.48835,1.5059 9.29247,2.48533 8.96191,3.45254 8.57012,4.35852 8.05593,5.24002 7.46826,6.04807 6.79488,6.79489 6.04807,7.46826 5.24002,8.05592 4.35852,8.57013 3.45254,8.9619 2.48534,9.29247 1.5059,9.48836 0.50195,9.59855 -0.50195,9.59854" /><path
       inkscape:connector-curvature="0"
       id="path5868"
       style="fill:none;stroke:#000000;stroke-width:0.6121521;stroke-linecap:butt;stroke-linejoin:miter;stroke-miterlimit:10;stroke-dasharray:2.44860854, 2.44860854;stroke-dashoffset:0;stroke-opacity:1"
       d="m 356.83066,313.12941 -1.5059,9.48836 -2.48534,9.29247 -3.45254,8.96191 -4.35852,8.57013 -5.24002,8.05592 -6.04807,7.46826 -6.79488,6.79488 -7.46826,6.04807 -8.05593,5.24002 -8.57012,4.35852 -8.96191,3.45254 -9.29247,2.48534 -9.48835,1.5059 -9.59856,0.50196 -9.59854,-0.50196 -9.48836,-1.5059 -9.29247,-2.48534 -8.9619,-3.45254 -8.57014,-4.35852 -8.05591,-5.24002 -7.46826,-6.04807 -6.79488,-6.79488 -6.04808,-7.46826 -5.24002,-8.05592 -4.35852,-8.57013 -3.45254,-8.96191 -2.48533,-9.29247 -1.5059,-9.48836 -0.50197,-9.59854 0.50197,-9.59855 1.5059,-9.48836 2.48533,-9.29247 3.45254,-8.9619 4.35852,-8.57013 5.24002,-8.05592 6.04808,-7.46826 6.79488,-6.79489 7.46826,-6.04807 8.05591,-5.24002 8.57014,-4.35852 8.9619,-3.45254 9.29247,-2.48533 9.48836,-1.5059 9.59854,-0.50196 9.59856,0.50196 9.48835,1.5059 9.29247,2.48533 8.96191,3.45254 8.57012,4.35852 8.05593,5.24002 7.46826,6.04807 6.79488,6.79489 6.04807,7.46826 5.24002,8.05592 4.35852,8.57013 3.45254,8.9619 2.48534,9.29247 1.5059,9.48836 0.50195,9.59855 -0.50195,9.59854" /><path
       inkscape:connector-curvature="0"
       id="path5870"
       style="fill:none;stroke:#000000;stroke-width:0.6121521;stroke-linecap:butt;stroke-linejoin:miter;stroke-miterlimit:10;stroke-dasharray:2.44860854, 2.44860854;stroke-dashoffset:0;stroke-opacity:1"
       d="m 387.38929,316.33709 -2.00786,12.67155 -3.31787,12.38996 -4.60338,11.97369 -5.81544,11.43501 -6.99078,10.76163 -8.06817,9.96584 -9.07209,9.07209 -9.96584,8.06817 -10.76163,6.99078 -11.43501,5.81544 -11.97369,4.60339 -12.38996,3.31786 -12.67155,2.00786 -12.80623,0.67337 -12.80621,-0.67337 -12.67156,-2.00786 -12.38995,-3.31786 -11.9737,-4.60339 -11.435,-5.81544 -10.76164,-6.99078 -9.96583,-8.06817 -9.07209,-9.07209 -8.06817,-9.96584 -6.99078,-10.76163 -5.81545,-11.43501 -4.60338,-11.97369 -3.31786,-12.38996 -2.00787,-12.67155 -0.67336,-12.80622 0.67336,-12.80622 2.00787,-12.67156 3.31786,-12.38996 4.60338,-11.97369 5.81545,-11.435 6.99078,-10.76164 8.06817,-9.96583 9.07209,-9.07209 9.96583,-8.06817 10.76164,-6.99078 11.435,-5.81545 11.9737,-4.60337 12.38995,-3.31787 12.67156,-2.00787 12.80621,-0.67336 12.80623,0.67336 12.67155,2.00787 12.38996,3.31787 11.97369,4.60337 11.43501,5.81545 10.76163,6.99078 9.96584,8.06817 9.07209,9.07209 8.06817,9.96583 6.99078,10.76164 5.81544,11.435 4.60338,11.97369 3.31787,12.38996 2.00786,12.67156 0.67337,12.80622 -0.67337,12.80622" /><path
       inkscape:connector-curvature="0"
       id="path5872"
       style="fill:none;stroke:#000000;stroke-width:0.6121521;stroke-linecap:butt;stroke-linejoin:miter;stroke-miterlimit:10;stroke-dasharray:2.44860854, 2.44860854;stroke-dashoffset:0;stroke-opacity:1"
       d="m 387.38929,316.33709 -2.00786,12.67155 -3.31787,12.38996 -4.60338,11.97369 -5.81544,11.43501 -6.99078,10.76163 -8.06817,9.96584 -9.07209,9.07209 -9.96584,8.06817 -10.76163,6.99078 -11.43501,5.81544 -11.97369,4.60339 -12.38996,3.31786 -12.67155,2.00786 -12.80623,0.67337 -12.80621,-0.67337 -12.67156,-2.00786 -12.38995,-3.31786 -11.9737,-4.60339 -11.435,-5.81544 -10.76164,-6.99078 -9.96583,-8.06817 -9.07209,-9.07209 -8.06817,-9.96584 -6.99078,-10.76163 -5.81545,-11.43501 -4.60338,-11.97369 -3.31786,-12.38996 -2.00787,-12.67155 -0.67336,-12.80622 0.67336,-12.80622 2.00787,-12.67156 3.31786,-12.38996 4.60338,-11.97369 5.81545,-11.435 6.99078,-10.76164 8.06817,-9.96583 9.07209,-9.07209 9.96583,-8.06817 10.76164,-6.99078 11.435,-5.81545 11.9737,-4.60337 12.38995,-3.31787 12.67156,-2.00787 12.80621,-0.67336 12.80623,0.67336 12.67155,2.00787 12.38996,3.31787 11.97369,4.60337 11.43501,5.81545 10.76163,6.99078 9.96584,8.06817 9.07209,9.07209 8.06817,9.96583 6.99078,10.76164 5.81544,11.435 4.60338,11.97369 3.31787,12.38996 2.00786,12.67156 0.67337,12.80622 -0.67337,12.80622" /><path
       inkscape:connector-curvature="0"
       id="path5874"
       style="fill:none;stroke:#000000;stroke-width:0.6121521;stroke-linecap:butt;stroke-linejoin:miter;stroke-miterlimit:10;stroke-dasharray:2.44860854, 2.44860854;stroke-dashoffset:0;stroke-opacity:1"
       d="m 357.33261,303.53087 0,0" /><path
       inkscape:connector-curvature="0"
       id="path5876"
       style="fill:none;stroke:#000000;stroke-width:0.6121521;stroke-linecap:butt;stroke-linejoin:miter;stroke-miterlimit:10;stroke-dasharray:2.44860854, 2.44860854;stroke-dashoffset:0;stroke-opacity:1"
       d="m 265.50979,395.35369 0,0" /><path
       inkscape:connector-curvature="0"
       id="path5878"
       style="fill:none;stroke:#000000;stroke-width:0.6121521;stroke-linecap:butt;stroke-linejoin:miter;stroke-miterlimit:10;stroke-dasharray:2.44860854, 2.44860854;stroke-dashoffset:0;stroke-opacity:1"
       d="m 173.68697,303.53087 0,0" /><path
       inkscape:connector-curvature="0"
       id="path5880"
       style="fill:none;stroke:#000000;stroke-width:0.6121521;stroke-linecap:butt;stroke-linejoin:miter;stroke-miterlimit:10;stroke-dasharray:2.44860854, 2.44860854;stroke-dashoffset:0;stroke-opacity:1"
       d="m 265.50979,211.70805 0,0" /><path
       inkscape:connector-curvature="0"
       id="path5882"
       style="fill:none;stroke:#000000;stroke-width:0.6121521;stroke-linecap:butt;stroke-linejoin:miter;stroke-miterlimit:10;stroke-dasharray:2.44860854, 2.44860854;stroke-dashoffset:0;stroke-opacity:1"
       d="m 388.06266,303.53087 0,0" /><path
       inkscape:connector-curvature="0"
       id="path5884"
       style="fill:none;stroke:#000000;stroke-width:0.6121521;stroke-linecap:butt;stroke-linejoin:miter;stroke-miterlimit:10;stroke-dasharray:2.44860854, 2.44860854;stroke-dashoffset:0;stroke-opacity:1"
       d="m 265.50979,426.08373 0,0" /><path
       inkscape:connector-curvature="0"
       id="path5886"
       style="fill:none;stroke:#000000;stroke-width:0.6121521;stroke-linecap:butt;stroke-linejoin:miter;stroke-miterlimit:10;stroke-dasharray:2.44860854, 2.44860854;stroke-dashoffset:0;stroke-opacity:1"
       d="m 142.95694,303.53087 0,0" /><path
       inkscape:connector-curvature="0"
       id="path5888"
       style="fill:none;stroke:#000000;stroke-width:0.6121521;stroke-linecap:butt;stroke-linejoin:miter;stroke-miterlimit:10;stroke-dasharray:2.44860854, 2.44860854;stroke-dashoffset:0;stroke-opacity:1"
       d="m 265.50979,180.97801 0,0" /><path
       inkscape:connector-curvature="0"
       id="path5890"
       style="fill:none;stroke:#000000;stroke-width:0.6121521;stroke-linecap:butt;stroke-linejoin:miter;stroke-miterlimit:10;stroke-dasharray:2.44860854, 2.44860854;stroke-dashoffset:0;stroke-opacity:1"
       d="m 265.50979,493.61634 11.93698,-0.37952 11.88799,-1.11412 11.79005,-1.87319 11.65538,-2.60777 11.47172,-3.3301 11.22687,-4.04021 10.96977,-4.7503 10.63921,-5.41142 10.2719,-6.0848 9.88014,-6.70918 9.43939,-7.32135 8.94967,-7.89675 8.4477,-8.4477 7.89675,-8.94967 7.32135,-9.43939 6.70918,-9.88013 6.07255,-10.27191 5.42367,-10.63921 4.7503,-10.95752 4.04021,-11.23912 3.3301,-11.47172 2.60777,-11.65538 1.87319,-11.79005 1.11412,-11.88799 0.37952,-11.93697 -0.37952,-11.93697 -1.11412,-11.88799 -1.87319,-11.79005 -2.60777,-11.65538 -3.3301,-11.47173 -4.04021,-11.22687 -4.7503,-10.96977 -5.41143,-10.6392 -6.08479,-10.27191 -6.70918,-9.88014 -7.32135,-9.43938 -7.89675,-8.94967 -8.4477,-8.4477 -8.94967,-7.89676 -9.43939,-7.32134 -9.88014,-6.70919 -10.2719,-6.07254 -10.63921,-5.42368 -10.95752,-4.7503 -11.23912,-4.0402 -11.47172,-3.33011 -11.65538,-2.60777 -11.79005,-1.87318 -11.88799,-1.11412 -11.93698,-0.37953" /><path
       inkscape:connector-curvature="0"
       id="path5892"
       style="fill:none;stroke:#000000;stroke-width:0.6121521;stroke-linecap:butt;stroke-linejoin:miter;stroke-miterlimit:10;stroke-dasharray:2.44860854, 2.44860854;stroke-dashoffset:0;stroke-opacity:1"
       d="m 265.50979,493.61634 -11.93696,-0.37952 -11.88799,-1.11412 -11.79005,-1.87319 -11.65538,-2.60777 -11.47173,-3.3301 -11.22687,-4.04021 -10.96977,-4.7503 -10.6392,-5.41142 -10.27192,-6.0848 -9.88013,-6.70918 -9.43938,-7.32135 -8.94967,-7.89675 -8.4477,-8.4477 -7.89676,-8.94967 -7.32135,-9.43939 -6.70918,-9.88013 -6.072555,-10.27191 -5.423663,-10.63921 -4.750301,-10.95752 -4.040205,-11.23912 -3.330107,-11.47172 -2.607768,-11.65538 -1.873185,-11.79005 -1.114117,-11.88799 -0.379535,-11.93697 0.379535,-11.93697 1.114117,-11.88799 1.873185,-11.79005 2.607768,-11.65538 3.330107,-11.47173 4.040205,-11.22687 4.750301,-10.96977 5.411422,-10.6392 6.084796,-10.27191 6.70918,-9.88014 7.32135,-9.43938 7.89676,-8.94967 8.4477,-8.4477 8.94967,-7.89676 9.43938,-7.32134 9.88013,-6.70919 10.27192,-6.07254 10.6392,-5.42368 10.95753,-4.7503 11.23911,-4.0402 11.47173,-3.33011 11.65538,-2.60777 11.79005,-1.87318 11.88799,-1.11412 11.93696,-0.37953" /><path
       inkscape:connector-curvature="0"
       id="path5894"
       style="fill:none;stroke:#000000;stroke-width:0.6121521;stroke-linecap:butt;stroke-linejoin:miter;stroke-miterlimit:10;stroke-dasharray:2.44860854, 2.44860854;stroke-dashoffset:0;stroke-opacity:1"
       d="m 265.50979,493.61634 11.93698,-0.37952 11.88799,-1.11412 11.79005,-1.87319 11.65538,-2.60777 11.47172,-3.3301 11.22687,-4.04021 10.96977,-4.7503 10.63921,-5.41142 10.2719,-6.0848 9.88014,-6.70918 9.43939,-7.32135 8.94967,-7.89675 8.4477,-8.4477 7.89675,-8.94967 7.32135,-9.43939 6.70918,-9.88013 6.07255,-10.27191 5.42367,-10.63921 4.7503,-10.95752 4.04021,-11.23912 3.3301,-11.47172 2.60777,-11.65538 1.87319,-11.79005 1.11412,-11.88799 0.37952,-11.93697 -0.37952,-11.93697 -1.11412,-11.88799 -1.87319,-11.79005 -2.60777,-11.65538 -3.3301,-11.47173 -4.04021,-11.22687 -4.7503,-10.96977 -5.41143,-10.6392 -6.08479,-10.27191 -6.70918,-9.88014 -7.32135,-9.43938 -7.89675,-8.94967 -8.4477,-8.4477 -8.94967,-7.89676 -9.43939,-7.32134 -9.88014,-6.70919 -10.2719,-6.07254 -10.63921,-5.42368 -10.95752,-4.7503 -11.23912,-4.0402 -11.47172,-3.33011 -11.65538,-2.60777 -11.79005,-1.87318 -11.88799,-1.11412 -11.93698,-0.37953" /><path
       inkscape:connector-curvature="0"
       id="path5896"
       style="fill:none;stroke:#000000;stroke-width:0.6121521;stroke-linecap:butt;stroke-linejoin:miter;stroke-miterlimit:10;stroke-dasharray:2.44860854, 2.44860854;stroke-dashoffset:0;stroke-opacity:1"
       d="m 265.50979,493.61634 -11.93696,-0.37952 -11.88799,-1.11412 -11.79005,-1.87319 -11.65538,-2.60777 -11.47173,-3.3301 -11.22687,-4.04021 -10.96977,-4.7503 -10.6392,-5.41142 -10.27192,-6.0848 -9.88013,-6.70918 -9.43938,-7.32135 -8.94967,-7.89675 -8.4477,-8.4477 -7.89676,-8.94967 -7.32135,-9.43939 -6.70918,-9.88013 -6.072555,-10.27191 -5.423663,-10.63921 -4.750301,-10.95752 -4.040205,-11.23912 -3.330107,-11.47172 -2.607768,-11.65538 -1.873185,-11.79005 -1.114117,-11.88799 -0.379535,-11.93697 0.379535,-11.93697 1.114117,-11.88799 1.873185,-11.79005 2.607768,-11.65538 3.330107,-11.47173 4.040205,-11.22687 4.750301,-10.96977 5.411422,-10.6392 6.084796,-10.27191 6.70918,-9.88014 7.32135,-9.43938 7.89676,-8.94967 8.4477,-8.4477 8.94967,-7.89676 9.43938,-7.32134 9.88013,-6.70919 10.27192,-6.07254 10.6392,-5.42368 10.95753,-4.7503 11.23911,-4.0402 11.47173,-3.33011 11.65538,-2.60777 11.79005,-1.87318 11.88799,-1.11412 11.93696,-0.37953" /><path
       inkscape:connector-curvature="0"
       id="path5898"
       style="fill:none;stroke:#000000;stroke-width:0.6121521;stroke-linecap:butt;stroke-linejoin:miter;stroke-miterlimit:10;stroke-dasharray:2.44860854, 2.44860854;stroke-dashoffset:0;stroke-opacity:1"
       d="m 23.819644,95.754196 0,433.171084 198.362026,0 0,-99.02173 86.65625,0 0,99.02173 198.36178,0 0,-433.171084 -198.36178,0 0,81.403984 -86.65625,0 0,-81.403984 -198.362026,0" /><path
       inkscape:connector-curvature="0"
       id="path5900"
       style="fill:none;stroke:#000000;stroke-width:0.6121521;stroke-linecap:butt;stroke-linejoin:miter;stroke-miterlimit:10;stroke-dasharray:2.44860854, 2.44860854;stroke-dashoffset:0;stroke-opacity:1"
       d="m 23.819644,95.754196 0,433.171084 198.362026,0 0,-99.02173 86.65625,0 0,99.02173 198.36178,0 0,-433.171084 -198.36178,0 0,81.403984 -86.65625,0 0,-81.403984 -198.362026,0" /><path
       inkscape:connector-curvature="0"
       id="path5902"
       style="fill:none;stroke:#0000ff;stroke-width:1.49365115;stroke-linecap:butt;stroke-linejoin:miter;stroke-miterlimit:10;stroke-dasharray:none;stroke-opacity:1"
       d="m 265.24045,303.49413 -1.68954,-0.39177 -1.68954,-0.39178 -1.6773,-0.39178 -1.68953,-0.39177 -1.68954,-0.40402 -1.68954,-0.40403 -1.6773,-0.40401 -1.68954,-0.40402 -1.6773,-0.40403 -1.68954,-0.40401 -1.67729,-0.41627 -1.68954,-0.41626 -1.6773,-0.41626 -1.6773,-0.41627 -1.6773,-0.4285 -1.68954,-0.41627 -1.6773,-0.4285 -1.67729,-0.42851 -1.67729,-0.42851 -1.6773,-0.44074 -1.6773,-0.42851 -1.6773,-0.44075 -1.66505,-0.44075 -1.6773,-0.44075 -1.67729,-0.44075 -1.6773,-0.45299 -1.66505,-0.453 -1.6773,-0.45299 -1.66506,-0.45299 -1.6773,-0.45299 -1.66504,-0.46524 -1.6773,-0.453 -1.66506,-0.46522 -1.66505,-0.46524 -1.6773,-0.46524 -1.66506,-0.47748 -1.66504,-0.46524 -1.66506,-0.47747 -1.66505,-0.47748 -1.66506,-0.47748 -1.66505,-0.48972 -0.28159,-0.0857" /><path
       inkscape:connector-curvature="0"
       id="path5904"
       style="fill:none;stroke:#0000ff;stroke-width:1.46916521;stroke-linecap:butt;stroke-linejoin:miter;stroke-miterlimit:10;stroke-dasharray:none;stroke-opacity:1"
       d="m 265.49755,303.57984 1.64057,0.48972 1.64057,0.48972 1.64057,0.48972 1.64057,0.47748 1.64056,0.48973 1.64057,0.48972 1.64057,0.47747 1.64057,0.48973 1.64057,0.47748 1.64056,0.48972 1.65281,0.47748 1.64057,0.48972 1.64057,0.47747 1.64056,0.47748 1.64057,0.47748 1.65281,0.47749 1.64057,0.47748 1.64057,0.47747 1.64056,0.47748 1.65282,0.47748 1.64057,0.47748 1.64057,0.47748 1.65281,0.46523 1.64056,0.47748 1.64057,0.47748 1.65281,0.46524 1.64057,0.47748 1.65281,0.46522 1.64056,0.46524 1.65282,0.47748 1.64057,0.46524 1.65281,0.46524 1.64057,0.46523 1.6528,0.46523 1.64057,0.46524 1.65281,0.46524 1.64057,0.46524 1.65282,0.46522 1.6528,0.453 1.64057,0.46524 1.65281,0.46523 1.65281,0.45299 -0.30608,-0.0735" /><path
       inkscape:connector-curvature="0"
       id="path5906"
       style="fill:none;stroke:#0000ff;stroke-width:1.49365115;stroke-linecap:butt;stroke-linejoin:miter;stroke-miterlimit:10;stroke-dasharray:none;stroke-opacity:1"
       d="m 265.24045,303.49413 1.68954,0.5387 1.6773,0.56318 1.68954,0.55094 1.67729,0.56318 1.68954,0.56318 1.6773,0.57542 1.6773,0.57542 1.6773,0.57543 1.67729,0.57542 1.66506,0.58767 1.67729,0.59991 1.66505,0.58766 1.66506,0.59991 1.6773,0.61215 1.66505,0.59991 1.66506,0.6244 1.6528,0.61215 1.66506,0.62439 1.66505,0.6244 1.65281,0.62439 1.65282,0.63665 1.6528,0.63664 1.65281,0.64888 1.65282,0.64888 1.65281,0.64888 1.64057,0.64888 1.6528,0.66112 1.64057,0.67337 1.64057,0.66112 1.64057,0.67337 1.64057,0.67337 1.64056,0.68561 1.64057,0.68561 1.62833,0.68561 1.62832,0.69785 1.62832,0.69786 1.62833,0.69785 1.62832,0.7101 1.62833,0.71009 1.62833,0.71009 1.61607,0.72235 -0.75906,-0.33056" /><path
       inkscape:connector-curvature="0"
       id="path5908"
       style="fill:none;stroke:#0000ff;stroke-width:1.46916521;stroke-linecap:butt;stroke-linejoin:miter;stroke-miterlimit:10;stroke-dasharray:none;stroke-opacity:1"
       d="m 265.24045,303.49413 1.64057,0.5387 1.64057,0.53869 1.64056,0.5387 1.64057,0.53869 1.64057,0.5387 1.64057,0.52645 1.64057,0.53869 1.6528,0.5387 1.64057,0.52645 1.64057,0.5387 1.64057,0.52644 1.64056,0.53869 1.65281,0.52645 1.64057,0.52646 1.64057,0.53869 1.64057,0.52645 1.65281,0.52645 1.64057,0.52646 1.64057,0.52645 1.65281,0.52645 1.64057,0.52644 1.6528,0.51421 1.64057,0.52645 1.65281,0.52645 1.64057,0.51421 1.65282,0.52646 1.64056,0.51421 1.65281,0.52645 1.64057,0.51421 1.65281,0.5142 1.64057,0.5142 1.6528,0.52646 1.65282,0.51421 1.64057,0.5142 1.65281,0.51421 1.65281,0.51421 1.64056,0.50197 1.65281,0.5142 1.65282,0.51421 1.65281,0.50196 1.65281,0.51421 1.64056,0.51421 -0.64888,-0.20813" /><path
       inkscape:connector-curvature="0"
       id="path5910"
       style="fill:none;stroke:#ff0000;stroke-width:2.93833041;stroke-linecap:butt;stroke-linejoin:miter;stroke-miterlimit:10;stroke-dasharray:none;stroke-opacity:1"
       d="m 355.56961,321.44244 0,0 -3.91776,13.87137 0,0 3.91776,-13.87137 35.08857,6.97854 0,0 -35.08857,-6.97854 35.08857,6.97854 -5.43591,19.27055 -33.57042,-12.37772 33.57042,12.37772 0,0 -33.57042,-12.37772 33.57042,12.37772 5.43591,-19.27055" /><path
       inkscape:connector-curvature="0"
       id="path5912"
       style="fill:none;stroke:#ff0000;stroke-width:2.93833041;stroke-linecap:butt;stroke-linejoin:miter;stroke-miterlimit:10;stroke-dasharray:none;stroke-opacity:1"
       d="m 176.22129,282.0933 0,0 0.91822,-3.48927 0,0 -0.91822,3.48927 -7.63966,-1.83646 0,0 7.63966,1.83646 -7.63966,-1.83646 0.97944,-3.78309 7.57844,2.13028 -7.57844,-2.13028 0,0 7.57844,2.13028 -7.57844,-2.13028 -0.97944,3.78309" /><path
       inkscape:connector-curvature="0"
       id="path5914"
       style="fill:none;stroke:#ff0000;stroke-width:2.93833041;stroke-linecap:butt;stroke-linejoin:miter;stroke-miterlimit:10;stroke-dasharray:none;stroke-opacity:1"
       d="m 356.19402,317.89196 0,0 -0.62441,3.55048 0,0 0.62441,-3.55048 6.66021,1.0529 0,0 -6.66021,-1.0529 6.66021,1.0529 -0.67336,3.81983 -6.61126,-1.32225 6.61126,1.32225 0,0 -6.61126,-1.32225 6.61126,1.32225 0.67336,-3.81983" /><path
       inkscape:connector-curvature="0"
       id="path5916"
       style="fill:none;stroke:#ff0000;stroke-width:2.93833041;stroke-linecap:butt;stroke-linejoin:miter;stroke-miterlimit:10;stroke-dasharray:none;stroke-opacity:1"
       d="m 341.85741,354.54762 0,0 -2.06907,2.95058 0,0 2.06907,-2.95058 3.14647,2.10581 0,0 -3.14647,-2.10581 3.14647,2.10581 -2.14254,3.073 -3.073,-2.22823 3.073,2.22823 0,0 -3.073,-2.22823 3.073,2.22823 2.14254,-3.073" /><path
       inkscape:connector-curvature="0"
       id="path5918"
       style="fill:none;stroke:#ff0000;stroke-width:2.93833041;stroke-linecap:butt;stroke-linejoin:miter;stroke-miterlimit:10;stroke-dasharray:none;stroke-opacity:1"
       d="m 277.18966,312.61521 6.29292,4.89721 -3.99123,3.99123 -4.89721,-6.29292 2.59552,-2.59552 0.30608,0.24485 6.46432,5.01965 -0.47748,-0.36729 0.47748,0.36729 -4.10142,4.10142 -0.36729,-0.47748 0.36729,0.47748 -5.01965,-6.46432 -0.24485,-0.30608 0.24485,0.30608 2.65675,-2.65675" /><path
       inkscape:connector-curvature="0"
       id="path5920"
       style="fill:none;stroke:#ff0000;stroke-width:2.93833041;stroke-linecap:butt;stroke-linejoin:miter;stroke-miterlimit:10;stroke-dasharray:none;stroke-opacity:1"
       d="m 252.09143,328.44546 2.15476,-3.99123 -3.78309,-2.53431 -2.87712,3.51375 4.50545,3.01179 -0.3673,0.69785 2.20375,-4.10142 0.31831,-0.58766 -0.31831,0.58766 -3.88105,-2.60776 0.41627,-0.51421 -0.41627,0.51421 -2.95057,3.6117 0.48972,-0.61216 -0.48972,0.61216 4.62787,3.09748" /><path
       inkscape:connector-curvature="0"
       id="path5922"
       style="fill:none;stroke:#00ff00;stroke-width:0.6121521;stroke-linecap:butt;stroke-linejoin:miter;stroke-miterlimit:10;stroke-dasharray:none;stroke-opacity:1"
       d="m 343.60817,343.38197 0,0 -1.57936,2.95057 0,0 1.57936,-2.95057 1.50589,0.75908 0,0 -1.50589,-0.75908 1.50589,0.75908 -1.61608,3.01178 -1.46917,-0.82029 1.46917,0.82029 0,0 -1.46917,-0.82029 1.46917,0.82029 1.61608,-3.01178" /><path
       inkscape:connector-curvature="0"
       id="path5924"
       style="fill:none;stroke:#00ff00;stroke-width:2.93833041;stroke-linecap:butt;stroke-linejoin:miter;stroke-miterlimit:10;stroke-dasharray:none;stroke-opacity:1"
       d="m 343.60817,343.38197 -1.57936,2.95057 1.46917,0.82029 1.61608,-3.01178 -1.50589,-0.75908 z" /><path
       inkscape:connector-curvature="0"
       id="path5926"
       style="fill:none;stroke:#00ff00;stroke-width:0.6121521;stroke-linecap:butt;stroke-linejoin:miter;stroke-miterlimit:10;stroke-dasharray:none;stroke-opacity:1"
       d="m 345.11406,340.28448 0,0 -1.45692,3.01179 0,0 1.45692,-3.01179 1.53038,0.69785 0,0 -1.53038,-0.69785 1.53038,0.69785 -1.49365,3.07301 -1.49365,-0.75907 1.49365,0.75907 0,0 -1.49365,-0.75907 1.49365,0.75907 1.49365,-3.07301" /><path
       inkscape:connector-curvature="0"
       id="path5928"
       style="fill:#00ff00;fill-opacity:1;fill-rule:evenodd;stroke:none;stroke-width:2.4000001;stroke-miterlimit:10;stroke-dasharray:none"
       d="m 345.11406,340.28448 -1.45692,3.01179 1.49365,0.75907 1.49365,-3.07301 -1.53038,-0.69785" /><path
       inkscape:connector-curvature="0"
       id="path5930"
       style="fill:none;stroke:#00ff00;stroke-width:0.6121521;stroke-linecap:butt;stroke-linejoin:miter;stroke-miterlimit:10;stroke-dasharray:none;stroke-opacity:1"
       d="m 346.49752,337.12578 0,0 -1.34673,3.073 0,0 1.34673,-3.073 1.55487,0.64888 0,0 -1.55487,-0.64888 1.55487,0.64888 -1.37122,3.12197 -1.53038,-0.69785 1.53038,0.69785 0,0 -1.53038,-0.69785 1.53038,0.69785 1.37122,-3.12197" /><path
       inkscape:connector-curvature="0"
       id="path5932"
       style="fill:#00ff00;fill-opacity:1;fill-rule:evenodd;stroke:none;stroke-width:2.4000001;stroke-miterlimit:10;stroke-dasharray:none"
       d="m 346.49752,337.12578 -1.34673,3.073 1.53038,0.69785 1.37122,-3.12197 -1.55487,-0.64888" /><path
       inkscape:connector-curvature="0"
       id="path5934"
       style="fill:none;stroke:#00ff00;stroke-width:0.6121521;stroke-linecap:butt;stroke-linejoin:miter;stroke-miterlimit:10;stroke-dasharray:none;stroke-opacity:1"
       d="m 347.75856,333.9181 0,0 -1.22431,3.12197 0,0 1.22431,-3.12197 1.57935,0.58766 0,0 -1.57935,-0.58766 1.57935,0.58766 -1.24879,3.1832 -1.55487,-0.64889 1.55487,0.64889 0,0 -1.55487,-0.64889 1.55487,0.64889 1.24879,-3.1832" /><path
       inkscape:connector-curvature="0"
       id="path5936"
       style="fill:#00ff00;fill-opacity:1;fill-rule:evenodd;stroke:none;stroke-width:2.4000001;stroke-miterlimit:10;stroke-dasharray:none"
       d="m 347.75856,333.9181 -1.22431,3.12197 1.55487,0.64889 1.24879,-3.1832 -1.57935,-0.58766" /><path
       inkscape:connector-curvature="0"
       id="path5938"
       style="fill:none;stroke:#00ff00;stroke-width:0.6121521;stroke-linecap:butt;stroke-linejoin:miter;stroke-miterlimit:10;stroke-dasharray:none;stroke-opacity:1"
       d="m 348.88492,330.6737 0,0 -1.10188,3.1587 0,0 1.10188,-3.1587 1.60384,0.51421 0,0 -1.60384,-0.51421 1.60384,0.51421 -1.12636,3.23215 -1.57936,-0.58766 1.57936,0.58766 0,0 -1.57936,-0.58766 1.57936,0.58766 1.12636,-3.23215" /><path
       inkscape:connector-curvature="0"
       id="path5940"
       style="fill:#00ff00;fill-opacity:1;fill-rule:evenodd;stroke:none;stroke-width:2.4000001;stroke-miterlimit:10;stroke-dasharray:none"
       d="m 348.88492,330.6737 -1.10188,3.1587 1.57936,0.58766 1.12636,-3.23215 -1.60384,-0.51421" /><path
       inkscape:connector-curvature="0"
       id="path5942"
       style="fill:none;stroke:#00ff00;stroke-width:0.6121521;stroke-linecap:butt;stroke-linejoin:miter;stroke-miterlimit:10;stroke-dasharray:none;stroke-opacity:1"
       d="m 180.26149,283.01153 0,0 0.84477,-3.23217 0,0 -0.84477,3.23217 -1.64057,-0.39178 0,0 1.64057,0.39178 -1.64057,-0.39178 0.86926,-3.30562 1.61608,0.46523 -1.61608,-0.46523 0,0 1.61608,0.46523 -1.61608,-0.46523 -0.86926,3.30562" /><path
       inkscape:connector-curvature="0"
       id="path5944"
       style="fill:#00ff00;fill-opacity:1;fill-rule:evenodd;stroke:none;stroke-width:2.4000001;stroke-miterlimit:10;stroke-dasharray:none"
       d="m 180.26149,283.01153 0.84477,-3.23217 -1.61608,-0.46523 -0.86926,3.30562 1.64057,0.39178" /><path
       inkscape:connector-curvature="0"
       id="path5946"
       style="fill:none;stroke:#00ff00;stroke-width:0.6121521;stroke-linecap:butt;stroke-linejoin:miter;stroke-miterlimit:10;stroke-dasharray:none;stroke-opacity:1"
       d="m 349.88885,327.38031 0,0 -0.97945,3.19543 0,0 0.97945,-3.19543 1.61608,0.453 0,0 -1.61608,-0.453 1.61608,0.453 -0.99169,3.26889 -1.60384,-0.52646 1.60384,0.52646 0,0 -1.60384,-0.52646 1.60384,0.52646 0.99169,-3.26889" /><path
       inkscape:connector-curvature="0"
       id="path5948"
       style="fill:#00ff00;fill-opacity:1;fill-rule:evenodd;stroke:none;stroke-width:2.4000001;stroke-miterlimit:10;stroke-dasharray:none"
       d="m 349.88885,327.38031 -0.97945,3.19543 1.60384,0.52646 0.99169,-3.26889 -1.61608,-0.453" /><path
       inkscape:connector-curvature="0"
       id="path5950"
       style="fill:none;stroke:#00ff00;stroke-width:0.6121521;stroke-linecap:butt;stroke-linejoin:miter;stroke-miterlimit:10;stroke-dasharray:none;stroke-opacity:1"
       d="m 350.7581,324.0502 0,0 -0.84476,3.23217 0,0 0.84476,-3.23217 1.64057,0.39178 0,0 -1.64057,-0.39178 1.64057,0.39178 -0.86925,3.30563 -1.61608,-0.46524 1.61608,0.46524 0,0 -1.61608,-0.46524 1.61608,0.46524 0.86925,-3.30563" /><path
       inkscape:connector-curvature="0"
       id="path5952"
       style="fill:#00ff00;fill-opacity:1;fill-rule:evenodd;stroke:none;stroke-width:2.4000001;stroke-miterlimit:10;stroke-dasharray:none"
       d="m 350.7581,324.0502 -0.84476,3.23217 1.61608,0.46524 0.86925,-3.30563 -1.64057,-0.39178" /><path
       inkscape:connector-curvature="0"
       id="path5954"
       style="fill:none;stroke:#00ff00;stroke-width:0.6121521;stroke-linecap:butt;stroke-linejoin:miter;stroke-miterlimit:10;stroke-dasharray:none;stroke-opacity:1"
       d="m 351.49269,320.68337 0,0 -0.72235,3.26889 0,0 0.72235,-3.26889 1.6528,0.33056 0,0 -1.6528,-0.33056 1.6528,0.33056 -0.73458,3.33011 -1.64057,-0.39178 1.64057,0.39178 0,0 -1.64057,-0.39178 1.64057,0.39178 0.73458,-3.33011" /><path
       inkscape:connector-curvature="0"
       id="path5956"
       style="fill:#00ff00;fill-opacity:1;fill-rule:evenodd;stroke:none;stroke-width:2.4000001;stroke-miterlimit:10;stroke-dasharray:none"
       d="m 351.49269,320.68337 -0.72235,3.26889 1.64057,0.39178 0.73458,-3.33011 -1.6528,-0.33056" /><path
       inkscape:connector-curvature="0"
       id="path5958"
       style="fill:none;stroke:#00ff00;stroke-width:0.6121521;stroke-linecap:butt;stroke-linejoin:miter;stroke-miterlimit:10;stroke-dasharray:none;stroke-opacity:1"
       d="m 352.10484,317.29205 0,0 -0.58766,3.29338 0,0 0.58766,-3.29338 1.66505,0.26934 0,0 -1.66505,-0.26934 1.66505,0.26934 -0.59991,3.3546 -1.6528,-0.33056 1.6528,0.33056 0,0 -1.6528,-0.33056 1.6528,0.33056 0.59991,-3.3546" /><path
       inkscape:connector-curvature="0"
       id="path5960"
       style="fill:#00ff00;fill-opacity:1;fill-rule:evenodd;stroke:none;stroke-width:2.4000001;stroke-miterlimit:10;stroke-dasharray:none"
       d="m 352.10484,317.29205 -0.58766,3.29338 1.6528,0.33056 0.59991,-3.3546 -1.66505,-0.26934" /><path
       inkscape:connector-curvature="0"
       id="path5962"
       style="fill:none;stroke:#00ff00;stroke-width:0.6121521;stroke-linecap:butt;stroke-linejoin:miter;stroke-miterlimit:10;stroke-dasharray:none;stroke-opacity:1"
       d="m 352.91288,310.46043 0,0 -0.33057,3.33011 0,0 0.33057,-3.33011 1.6773,0.13468 0,0 -1.6773,-0.13468 1.6773,0.13468 -0.33057,3.39131 -1.6773,-0.19588 1.6773,0.19588 0,0 -1.6773,-0.19588 1.6773,0.19588 0.33057,-3.39131" /><path
       inkscape:connector-curvature="0"
       id="path5964"
       style="fill:none;stroke:#00ff00;stroke-width:2.93833041;stroke-linecap:butt;stroke-linejoin:miter;stroke-miterlimit:10;stroke-dasharray:none;stroke-opacity:1"
       d="m 352.91288,310.46043 -0.33057,3.33011 1.6773,0.19588 0.33057,-3.39131 -1.6773,-0.13468 z" /><path
       inkscape:connector-curvature="0"
       id="path5966"
       style="fill:none;stroke:#00ff00;stroke-width:0.6121521;stroke-linecap:butt;stroke-linejoin:miter;stroke-miterlimit:10;stroke-dasharray:none;stroke-opacity:1"
       d="m 353.12101,307.02013 0,0 -0.19589,3.34235 0,0 0.19589,-3.34235 1.6773,0.0612 0,0 -1.6773,-0.0612 1.6773,0.0612 -0.19589,3.41581 -1.6773,-0.13468 1.6773,0.13468 0,0 -1.6773,-0.13468 1.6773,0.13468 0.19589,-3.41581" /><path
       inkscape:connector-curvature="0"
       id="path5968"
       style="fill:#00ff00;fill-opacity:1;fill-rule:evenodd;stroke:none;stroke-width:2.4000001;stroke-miterlimit:10;stroke-dasharray:none"
       d="m 353.12101,307.02013 -0.19589,3.34235 1.6773,0.13468 0.19589,-3.41581 -1.6773,-0.0612" /><path
       inkscape:connector-curvature="0"
       id="path5970"
       style="fill:none;stroke:#00ff00;stroke-width:0.6121521;stroke-linecap:butt;stroke-linejoin:miter;stroke-miterlimit:10;stroke-dasharray:none;stroke-opacity:1"
       d="m 353.12101,300.13955 0,0 0.0612,3.34234 0,0 -0.0612,-3.34234 1.68954,-0.0735 0,0 -1.68954,0.0735 1.68954,-0.0735 0.0612,3.4158 -1.68954,0 1.68954,0 -1.68954,0 1.68954,0 -0.0612,-3.4158" /><path
       inkscape:connector-curvature="0"
       id="path5972"
       style="fill:none;stroke:#00ff00;stroke-width:2.93833041;stroke-linecap:butt;stroke-linejoin:miter;stroke-miterlimit:10;stroke-dasharray:none;stroke-opacity:1"
       d="m 353.12101,300.13955 0.0612,3.34234 1.68954,0 -0.0612,-3.4158 -1.68954,0.0735 z" /><path
       inkscape:connector-curvature="0"
       id="path5974"
       style="fill:none;stroke:#00ff00;stroke-width:0.6121521;stroke-linecap:butt;stroke-linejoin:miter;stroke-miterlimit:10;stroke-dasharray:none;stroke-opacity:1"
       d="m 352.58231,293.2712 0,0 0.33057,3.33011 0,0 -0.33057,-3.33011 1.6773,-0.19589 0,0 -1.6773,0.19589 1.6773,-0.19589 0.33057,3.39133 -1.6773,0.13467 1.6773,-0.13467 0,0 -1.6773,0.13467 1.6773,-0.13467 -0.33057,-3.39133" /><path
       inkscape:connector-curvature="0"
       id="path5976"
       style="fill:none;stroke:#00ff00;stroke-width:2.93833041;stroke-linecap:butt;stroke-linejoin:miter;stroke-miterlimit:10;stroke-dasharray:none;stroke-opacity:1"
       d="m 352.58231,293.2712 0.33057,3.33011 1.6773,-0.13467 -0.33057,-3.39133 -1.6773,0.19589 z" /><path
       inkscape:connector-curvature="0"
       id="path5978"
       style="fill:none;stroke:#ff00ff;stroke-width:2.93833041;stroke-linecap:butt;stroke-linejoin:miter;stroke-miterlimit:10;stroke-dasharray:none;stroke-opacity:1"
       d="m 387.14443,336.12185 0,0 -5.30124,15.59763 0,0 5.30124,-15.59763 17.12801,4.59114 0,0 -17.12801,-4.59114 17.12801,4.59114 -6.03582,17.78914 -16.39343,-6.78265 16.39343,6.78265 0,0 -16.39343,-6.78265 16.39343,6.78265 6.03582,-17.78914" /><path
       inkscape:connector-curvature="0"
       id="path5980"
       style="fill:none;stroke:#ff00ff;stroke-width:2.93833041;stroke-linecap:butt;stroke-linejoin:miter;stroke-miterlimit:10;stroke-dasharray:none;stroke-opacity:1"
       d="m 143.87517,270.93989 0,0 5.30124,-15.59763 0,0 -5.30124,15.59763 -8.53341,-2.28945 0,0 8.53341,2.28945 -8.53341,-2.28945 5.66854,-16.68727 8.16611,3.37909 -8.16611,-3.37909 0,0 8.16611,3.37909 -8.16611,-3.37909 -5.66854,16.68727" /><path
       inkscape:connector-curvature="0"
       id="path5982"
       style="fill:none;stroke:#ff00ff;stroke-width:2.93833041;stroke-linecap:butt;stroke-linejoin:miter;stroke-miterlimit:10;stroke-dasharray:none;stroke-opacity:1"
       d="m 390.35211,319.97327 0,0 -3.20768,16.14858 0,0 3.20768,-16.14858 8.66806,1.1386 0,0 -8.66806,-1.1386 8.66806,1.1386 -3.44029,17.27494 -8.43545,-2.26496 8.43545,2.26496 0,0 -8.43545,-2.26496 8.43545,2.26496 3.44029,-17.27494" /><path
       inkscape:connector-curvature="0"
       id="path5984"
       style="fill:none;stroke:#ff00ff;stroke-width:2.93833041;stroke-linecap:butt;stroke-linejoin:miter;stroke-miterlimit:10;stroke-dasharray:none;stroke-opacity:1"
       d="m 365.41302,380.18456 0,0 -10.85957,12.38996 0,0 10.85957,-12.38996 4.44423,3.41581 0,0 -4.44423,-3.41581 4.44423,3.41581 -11.34931,12.92865 -3.95449,-3.9545 3.95449,3.9545 0,0 -3.95449,-3.9545 3.95449,3.9545 11.34931,-12.92865" /><path
       inkscape:connector-curvature="0"
       id="path5986"
       style="fill:none;stroke:#ff00ff;stroke-width:2.93833041;stroke-linecap:butt;stroke-linejoin:miter;stroke-miterlimit:10;stroke-dasharray:none;stroke-opacity:1"
       d="m 144.18124,269.82577 0,0 0.23262,-0.84477 0,0 -0.23262,0.84477 -10.36985,-2.87712 0,0 10.36985,2.87712 -10.36985,-2.87712 0.2571,-0.91822 10.34537,2.95057 -10.34537,-2.95057 0,0 10.34537,2.95057 -10.34537,-2.95057 -0.2571,0.91822" /><path
       inkscape:connector-curvature="0"
       id="path5988"
       style="fill:none;stroke:#ff00ff;stroke-width:2.93833041;stroke-linecap:butt;stroke-linejoin:miter;stroke-miterlimit:10;stroke-dasharray:none;stroke-opacity:1"
       d="m 385.98134,340.1743 0,0 -0.94271,2.97506 0,0 0.94271,-2.97506 14.56922,4.41973 0,0 -14.56922,-4.41973 14.56922,4.41973 -1.06515,3.34235 -14.44678,-4.78702 14.44678,4.78702 0,0 -14.44678,-4.78702 14.44678,4.78702 1.06515,-3.34235" /><path
       inkscape:connector-curvature="0"
       id="path5990"
       style="fill:none;stroke:#ff00ff;stroke-width:2.93833041;stroke-linecap:butt;stroke-linejoin:miter;stroke-miterlimit:10;stroke-dasharray:none;stroke-opacity:1"
       d="m 388.45443,330.74715 0,0 -0.22037,0.97944 0,0 0.22037,-0.97944 10.51677,2.32618 0,0 -10.51677,-2.32618 10.51677,2.32618 -0.24485,1.05291 -10.49229,-2.39965 10.49229,2.39965 0,0 -10.49229,-2.39965 10.49229,2.39965 0.24485,-1.05291" /><path
       inkscape:connector-curvature="0"
       id="path5992"
       style="fill:none;stroke:#008000;stroke-width:2.93833041;stroke-linecap:butt;stroke-linejoin:miter;stroke-miterlimit:10;stroke-dasharray:none;stroke-opacity:1"
       d="m 82.61098,256.01562 -34.427436,-6.5133 6.525542,0.19589" /><path
       inkscape:connector-curvature="0"
       id="path5998"
       style="fill:none;stroke:#00ff00;stroke-width:0.97944343;stroke-linecap:butt;stroke-linejoin:miter;stroke-miterlimit:10;stroke-dasharray:none;stroke-opacity:1"
       d="m 265.24045,308.3179 0,-9.64752" /><path
       inkscape:connector-curvature="0"
       id="path6000"
       style="fill:none;stroke:#00ff00;stroke-width:0.97944343;stroke-linecap:butt;stroke-linejoin:miter;stroke-miterlimit:10;stroke-dasharray:none;stroke-opacity:1"
       d="m 261.40837,305.90602 7.66416,-4.82376" /><path
       inkscape:connector-curvature="0"
       id="path6002"
       style="fill:none;stroke:#00ff00;stroke-width:0.97944343;stroke-linecap:butt;stroke-linejoin:miter;stroke-miterlimit:10;stroke-dasharray:none;stroke-opacity:1"
       d="m 269.07253,305.90602 -7.66416,-4.82376" /><path
       inkscape:connector-curvature="0"
       id="path6004"
       style="fill:none;stroke:#00ff00;stroke-width:0.97944343;stroke-linecap:butt;stroke-linejoin:miter;stroke-miterlimit:10;stroke-dasharray:none;stroke-opacity:1"
       d="m 265.24045,303.49413 -0.0123,0 0,-0.0123 0,0.0123 0.0123,0 0.0123,0 -0.0123,0 0,0" /><path
       inkscape:connector-curvature="0"
       id="path6006"
       style="fill:#ff0000;fill-opacity:1;fill-rule:evenodd;stroke:#00ff00;stroke-width:1.2243042"
       d="m 265.24045,303.49413 -0.0123,0 0,-0.0123 0,0.0123 0.0123,0 0.0123,0 -0.0123,0 0,0" /><path
       inkscape:connector-curvature="0"
       id="path6008"
       style="fill:none;stroke:#00ff00;stroke-width:0.97944343;stroke-linecap:butt;stroke-linejoin:miter;stroke-miterlimit:10;stroke-dasharray:none;stroke-opacity:1"
       d="m 265.24045,303.49413 0,0" /><path
       inkscape:connector-curvature="0"
       id="path6010"
       style="fill:#ff0000;fill-opacity:1;fill-rule:evenodd;stroke:#00ff00;stroke-width:1.2243042"
       d="m 265.24045,303.49413 0,0" /><path
       inkscape:connector-curvature="0"
       id="path6012"
       style="fill:none;stroke:#00ff00;stroke-width:0.97944343;stroke-linecap:butt;stroke-linejoin:miter;stroke-miterlimit:10;stroke-dasharray:none;stroke-opacity:1"
       d="m 265.24045,303.49413 -0.0123,0 0,-0.0123 0,0.0123 0.0123,0 0.0123,0 -0.0123,0 0,0" /><path
       inkscape:connector-curvature="0"
       id="path6014"
       style="fill:#ff0000;fill-opacity:1;fill-rule:evenodd;stroke:#00ff00;stroke-width:1.2243042"
       d="m 265.24045,303.49413 -0.0123,0 0,-0.0123 0,0.0123 0.0123,0 0.0123,0 -0.0123,0 0,0" /><path
       inkscape:connector-curvature="0"
       id="path4562-7"
       style="fill:none;stroke:#008000;stroke-width:3.68760467;stroke-linecap:butt;stroke-linejoin:miter;stroke-miterlimit:10;stroke-dasharray:none;stroke-opacity:1"
       d="m 56.688639,252.50849 -8.825715,-3.34416 9.423163,0.15798" /></g></svg>